<svg id="svg" version="1.1" xmlns="http://www.w3.org/2000/svg" xmlns:xlink="http://www.w3.org/1999/xlink" width="400" height="276.59574468085106" viewBox="0, 0, 400,276.59574468085106"><g id="svgg"><path id="path0" d="M198.893 17.131 C 197.234 17.247,195.530 17.532,194.918 17.796 C 194.067 18.162,192.942 18.257,189.443 18.257 C 185.593 18.257,184.905 18.326,183.961 18.808 C 182.509 19.548,178.356 20.139,173.162 20.344 C 164.077 20.702,158.703 21.679,156.937 23.296 C 156.319 23.862,155.392 24.020,149.101 24.635 C 144.204 25.113,142.087 25.743,140.287 27.258 C 139.608 27.830,138.694 28.121,135.897 28.655 C 130.278 29.730,128.998 30.126,127.488 31.260 C 126.378 32.094,125.643 32.386,123.705 32.762 C 118.477 33.776,117.013 34.292,115.791 35.554 C 114.249 37.146,113.319 37.558,110.763 37.781 C 108.178 38.007,107.265 38.411,106.428 39.697 C 105.726 40.776,105.279 40.999,102.300 41.753 C 100.197 42.286,98.103 43.398,97.821 44.132 C 97.632 44.625,95.843 45.520,94.594 45.746 C 93.346 45.972,90.659 47.644,90.050 48.574 C 89.754 49.026,88.528 49.779,86.700 50.633 C 84.677 51.577,83.727 52.178,83.513 52.648 C 83.314 53.085,82.807 53.436,82.060 53.656 C 80.201 54.204,78.103 55.540,76.920 56.931 C 76.153 57.832,75.368 58.402,74.353 58.792 C 73.136 59.260,72.713 59.620,71.833 60.936 C 71.129 61.988,70.527 62.577,70.035 62.695 C 68.506 63.062,67.223 63.923,66.605 64.998 C 66.160 65.770,65.643 66.218,64.839 66.525 C 63.240 67.136,60.996 68.878,59.443 70.715 C 58.715 71.576,57.833 72.482,57.483 72.728 C 56.693 73.284,51.819 78.161,51.687 78.528 C 51.634 78.675,50.775 79.521,49.779 80.408 C 48.783 81.294,47.172 82.891,46.200 83.956 C 45.227 85.021,44.225 85.996,43.972 86.123 C 43.337 86.443,41.026 89.990,40.809 90.977 C 40.695 91.496,40.365 91.899,39.887 92.102 C 38.599 92.650,38.047 93.313,37.549 94.909 C 37.166 96.136,36.786 96.693,35.713 97.598 C 34.759 98.402,34.013 99.412,33.189 101.013 C 32.545 102.263,31.548 103.882,30.973 104.609 C 30.398 105.336,29.717 106.526,29.459 107.253 C 28.503 109.951,28.086 110.721,27.221 111.381 C 26.041 112.281,25.041 114.397,24.369 117.416 C 23.885 119.591,23.698 119.996,22.838 120.735 C 21.644 121.759,21.194 122.983,20.340 127.524 C 19.596 131.472,19.568 131.556,18.234 133.610 C 16.600 136.128,16.052 142.486,16.063 158.783 C 16.076 176.660,16.547 182.076,18.259 184.044 C 19.369 185.318,19.888 186.883,20.613 191.129 C 21.227 194.731,22.290 196.957,23.393 196.957 C 23.812 196.957,24.066 197.587,24.066 198.623 C 24.066 200.117,25.443 203.406,26.378 204.147 C 28.055 205.474,28.447 206.025,28.923 207.722 C 29.205 208.726,29.729 209.782,30.193 210.278 C 30.627 210.743,30.982 211.184,30.982 211.257 C 30.982 211.331,31.228 211.598,31.530 211.851 C 31.831 212.103,32.525 213.181,33.072 214.246 C 34.186 216.414,35.274 217.704,35.988 217.704 C 36.616 217.704,37.896 219.243,37.904 220.007 C 37.912 220.807,38.614 221.634,40.025 222.506 C 40.686 222.915,41.384 223.644,41.649 224.201 C 42.138 225.233,43.066 226.107,44.504 226.890 C 44.981 227.150,45.503 227.710,45.664 228.135 C 46.122 229.345,47.022 230.140,48.896 230.992 C 49.848 231.425,50.711 232.005,50.814 232.280 C 51.208 233.339,52.159 234.326,53.329 234.893 C 53.998 235.217,55.231 236.150,56.067 236.967 C 56.903 237.783,57.722 238.451,57.887 238.451 C 58.051 238.451,58.383 238.617,58.623 238.820 C 58.863 239.023,59.464 239.335,59.959 239.512 C 60.453 239.689,61.220 239.969,61.663 240.134 C 62.140 240.312,62.536 240.702,62.634 241.090 C 62.872 242.039,64.259 242.958,66.988 243.975 C 68.647 244.593,69.867 245.277,70.956 246.198 C 71.867 246.968,72.931 247.603,73.482 247.707 C 75.138 248.017,76.807 248.882,77.425 249.750 C 78.193 250.830,80.497 251.936,82.434 252.157 C 84.745 252.420,85.798 252.812,86.860 253.805 C 88.513 255.351,91.572 256.414,94.405 256.427 C 95.939 256.434,98.513 257.417,99.319 258.304 C 100.201 259.273,102.235 259.939,105.491 260.325 C 111.753 261.067,113.217 261.392,114.661 262.359 C 115.422 262.868,116.293 263.410,116.598 263.563 C 117.674 264.106,122.757 264.729,128.492 265.022 C 134.208 265.313,137.292 265.812,137.907 266.545 C 138.080 266.751,139.227 266.937,140.812 267.016 C 142.252 267.088,144.613 267.430,146.058 267.777 C 148.605 268.389,149.185 268.412,164.775 268.524 L 180.865 268.639 182.894 267.892 C 184.381 267.345,185.738 267.089,187.967 266.937 C 189.640 266.822,191.360 266.590,191.788 266.421 C 192.217 266.252,192.972 266.113,193.467 266.113 C 193.962 266.113,194.981 265.934,195.731 265.715 C 196.521 265.484,199.543 265.195,202.905 265.028 C 206.100 264.869,209.585 264.604,210.650 264.438 C 211.715 264.273,213.420 264.012,214.438 263.859 C 215.682 263.671,216.791 263.277,217.819 262.658 C 219.641 261.561,223.093 260.711,226.817 260.443 C 229.953 260.217,233.352 259.398,234.302 258.640 C 234.682 258.337,235.242 257.908,235.547 257.688 C 235.852 257.467,237.893 256.958,240.082 256.556 C 244.563 255.733,245.823 255.276,247.505 253.868 C 248.463 253.066,249.042 252.830,250.687 252.573 C 256.728 251.628,258.218 251.127,258.981 249.786 C 259.560 248.767,261.223 248.010,263.485 247.734 C 265.612 247.476,267.157 246.793,268.444 245.543 C 269.014 244.989,269.982 244.408,270.626 244.233 C 274.671 243.132,275.201 242.872,276.567 241.314 C 277.811 239.896,280.702 238.451,282.294 238.451 C 282.456 238.451,283.063 237.984,283.642 237.414 C 284.222 236.843,285.771 235.816,287.084 235.131 C 288.902 234.183,289.655 233.611,290.244 232.732 C 290.789 231.920,291.283 231.520,291.913 231.384 C 293.459 231.049,295.003 230.187,296.279 228.946 C 296.956 228.287,298.382 227.182,299.447 226.489 C 300.512 225.797,301.632 224.958,301.936 224.626 C 303.502 222.915,304.173 222.361,305.268 221.877 C 306.117 221.501,306.623 221.038,307.007 220.286 C 307.656 219.014,308.253 218.471,309.544 217.980 C 310.905 217.462,311.186 217.196,311.857 215.798 C 312.238 215.003,312.792 214.380,313.416 214.045 C 314.521 213.452,315.554 212.378,316.237 211.113 C 316.533 210.562,317.118 210.078,317.828 209.794 C 319.135 209.271,320.293 208.011,320.523 206.861 C 320.611 206.418,320.986 205.844,321.355 205.586 C 323.065 204.392,323.727 203.706,324.257 202.579 C 324.571 201.910,325.382 200.909,326.058 200.355 C 326.734 199.801,327.535 198.903,327.839 198.360 C 329.513 195.366,330.049 194.587,331.189 193.495 C 331.931 192.783,332.648 191.749,332.946 190.960 C 333.632 189.139,334.402 187.868,335.017 187.539 C 335.592 187.231,337.283 183.888,337.902 181.836 C 338.197 180.856,338.554 180.338,339.235 179.901 C 340.403 179.150,341.223 177.415,341.470 175.170 C 341.777 172.371,342.270 171.126,343.515 170.001 C 344.736 168.898,345.267 167.635,345.785 164.592 C 346.220 162.038,346.910 159.844,347.486 159.188 C 348.028 158.570,348.978 155.832,349.403 153.665 C 349.552 152.905,349.848 149.103,350.060 145.218 C 350.464 137.826,350.773 135.786,351.629 134.837 C 352.404 133.977,352.398 126.064,351.620 124.539 C 350.930 123.185,350.282 118.873,350.074 114.246 C 349.743 106.897,348.976 103.003,347.565 101.514 C 346.740 100.643,346.492 99.883,345.902 96.404 C 345.371 93.273,344.407 90.933,343.366 90.251 C 342.479 89.669,341.362 87.313,341.358 86.016 C 341.355 84.770,340.122 82.268,339.220 81.678 C 338.486 81.196,337.208 79.357,337.203 78.775 C 337.196 77.880,335.813 75.528,335.067 75.142 C 334.573 74.886,334.159 74.373,333.982 73.795 C 333.641 72.684,331.123 69.162,330.323 68.677 C 330.014 68.490,329.131 67.403,328.360 66.261 C 327.590 65.119,326.595 63.997,326.150 63.767 C 325.340 63.348,323.928 61.735,323.928 61.229 C 323.928 60.831,322.483 59.520,321.410 58.944 C 320.893 58.668,320.089 57.895,319.623 57.229 C 319.156 56.562,317.974 55.492,316.995 54.850 C 316.015 54.209,314.841 53.259,314.385 52.739 C 313.310 51.515,310.885 49.885,309.538 49.481 C 308.849 49.275,308.424 48.959,308.325 48.579 C 308.079 47.645,306.313 45.983,305.337 45.769 C 304.321 45.546,302.351 44.381,302.351 44.004 C 302.351 43.534,299.531 42.019,297.345 41.313 C 295.873 40.839,295.159 40.470,295.159 40.185 C 295.159 39.597,293.299 37.898,292.656 37.898 C 291.466 37.898,288.349 36.458,287.275 35.412 C 285.995 34.165,285.481 33.943,281.777 33.046 C 279.175 32.415,277.732 31.791,277.732 31.296 C 277.732 30.679,274.873 29.572,272.295 29.191 C 267.894 28.540,265.932 27.954,265.582 27.184 C 264.990 25.887,262.770 25.205,256.923 24.528 C 252.117 23.971,251.472 23.834,250.612 23.192 C 248.405 21.543,244.908 20.829,237.206 20.456 C 230.528 20.132,225.930 19.521,224.673 18.790 C 223.878 18.327,223.201 18.257,219.509 18.257 C 215.770 18.257,215.100 18.186,213.923 17.666 C 212.418 17.000,204.707 16.726,198.893 17.131 M212.587 21.434 C 213.814 21.694,216.096 21.846,218.821 21.849 C 226.916 21.858,240.244 22.966,241.663 23.749 C 243.466 24.743,246.255 25.462,250.899 26.131 C 257.803 27.124,258.121 27.206,261.134 28.745 C 263.830 30.123,266.828 30.982,268.936 30.982 C 270.715 30.982,271.714 31.356,273.971 32.865 C 275.214 33.697,276.596 34.366,277.496 34.572 C 280.149 35.181,282.832 36.255,283.679 37.047 C 284.136 37.474,284.758 37.896,285.062 37.985 C 289.741 39.351,291.844 40.310,292.676 41.459 C 293.185 42.162,293.948 42.806,294.554 43.044 C 297.087 44.042,298.865 45.002,299.438 45.683 C 300.146 46.524,301.553 47.288,303.679 47.983 C 304.828 48.359,305.289 48.692,305.814 49.524 C 306.740 50.991,307.594 51.729,308.364 51.729 C 308.797 51.729,309.659 52.357,310.924 53.596 C 313.072 55.700,313.443 56.023,314.803 56.977 C 315.334 57.349,315.930 57.877,316.129 58.149 C 316.328 58.422,316.670 58.645,316.890 58.645 C 317.109 58.645,317.289 58.764,317.289 58.909 C 317.289 59.055,318.167 59.884,319.241 60.751 C 320.314 61.618,321.362 62.651,321.570 63.045 C 321.962 63.792,323.145 65.076,324.829 66.582 C 325.817 67.466,327.524 69.744,327.524 70.179 C 327.524 70.710,328.964 72.476,329.401 72.482 C 329.920 72.488,331.090 74.028,331.659 75.451 C 331.977 76.247,333.397 77.767,334.082 78.045 C 334.219 78.101,334.678 79.142,335.102 80.360 C 336.064 83.123,337.058 84.868,337.883 85.244 C 338.588 85.565,339.696 87.339,339.695 88.143 C 339.693 89.507,340.927 92.692,341.927 93.903 C 343.170 95.407,343.039 95.020,344.098 100.286 C 345.036 104.952,345.491 106.422,346.385 107.677 C 349.274 111.735,349.270 147.357,346.380 152.162 C 345.411 153.774,344.795 155.924,344.126 160.028 C 343.511 163.800,342.947 165.505,342.075 166.229 C 341.376 166.808,340.345 169.347,339.997 171.342 C 339.549 173.917,338.734 175.848,337.743 176.682 C 336.910 177.383,335.823 179.184,335.823 179.864 C 335.822 180.568,334.221 183.554,333.481 184.232 C 332.626 185.015,331.629 186.846,331.106 188.594 C 330.850 189.452,330.349 190.120,329.277 191.036 C 328.454 191.739,327.722 192.625,327.624 193.037 C 327.294 194.411,326.643 195.375,324.798 197.218 C 323.787 198.228,322.599 199.734,322.159 200.564 C 321.450 201.902,319.688 203.853,319.176 203.867 C 319.073 203.870,318.671 204.544,318.283 205.364 C 317.704 206.590,317.311 207.007,316.083 207.700 C 314.938 208.346,314.445 208.838,313.980 209.799 C 313.519 210.752,313.036 211.238,311.979 211.813 C 310.921 212.389,310.382 212.931,309.743 214.064 C 309.156 215.105,308.619 215.674,307.973 215.944 C 307.006 216.348,305.892 217.193,305.142 218.091 C 304.415 218.961,303.949 219.342,302.213 220.486 C 301.300 221.088,300.180 222.070,299.723 222.670 C 299.148 223.425,298.196 224.108,296.620 224.895 C 294.602 225.903,293.223 227.102,293.223 227.846 C 293.223 228.186,292.325 228.699,290.594 229.346 C 289.710 229.677,288.710 230.320,288.180 230.898 C 287.627 231.500,286.199 232.401,284.509 233.212 C 282.493 234.180,281.377 234.920,280.394 235.942 C 279.652 236.713,278.881 237.344,278.681 237.344 C 277.601 237.344,274.219 238.921,273.276 239.864 C 271.986 241.154,271.644 241.336,269.443 241.906 C 267.288 242.465,265.998 243.112,264.772 244.249 C 264.102 244.871,263.336 245.219,262.006 245.505 C 258.605 246.236,255.664 247.430,254.489 248.554 C 253.669 249.339,251.366 250.121,248.038 250.745 C 245.494 251.222,243.365 252.010,242.462 252.809 C 241.626 253.549,240.641 253.848,235.961 254.779 C 232.550 255.457,231.165 255.877,229.184 256.833 C 226.338 258.207,223.809 258.844,220.295 259.072 C 213.843 259.490,210.756 260.033,208.575 261.132 C 206.968 261.942,205.940 262.247,204.011 262.489 C 199.743 263.024,191.250 263.624,187.876 263.628 C 186.021 263.631,183.941 263.803,182.988 264.033 C 180.937 264.528,151.514 264.639,148.578 264.163 C 147.606 264.005,144.494 263.760,141.662 263.619 C 129.471 263.012,126.498 262.613,122.839 261.097 C 120.583 260.163,116.273 259.198,114.356 259.198 C 110.677 259.198,106.260 258.156,104.252 256.815 C 102.976 255.963,99.841 254.965,96.985 254.500 C 94.741 254.135,93.446 253.729,92.531 253.104 C 91.637 252.494,88.922 251.176,88.558 251.176 C 88.436 251.176,87.538 250.932,86.561 250.635 C 85.585 250.338,84.260 249.961,83.616 249.796 C 82.957 249.628,81.872 249.000,81.127 248.355 C 79.570 247.006,78.318 246.424,75.573 245.767 C 73.721 245.325,73.485 245.186,72.742 244.107 C 71.916 242.906,70.429 242.145,66.943 241.139 C 66.039 240.878,65.676 240.622,65.615 240.203 C 65.497 239.394,64.550 238.629,62.932 238.036 C 61.094 237.361,60.008 236.622,59.336 235.588 C 59.011 235.088,57.679 234.083,56.104 233.150 C 54.631 232.277,52.910 231.004,52.280 230.321 C 51.590 229.572,50.678 228.926,49.986 228.695 C 49.048 228.382,48.673 228.033,47.953 226.801 C 47.448 225.937,46.735 225.133,46.287 224.923 C 45.857 224.721,45.318 224.466,45.090 224.357 C 44.862 224.247,44.359 223.582,43.972 222.877 C 43.086 221.264,42.213 220.330,41.200 219.910 C 40.708 219.706,40.194 219.140,39.842 218.412 C 39.531 217.769,38.612 216.568,37.801 215.744 C 36.990 214.920,35.851 213.336,35.271 212.224 C 34.268 210.302,33.777 209.687,31.880 207.974 C 31.326 207.474,31.013 206.882,30.915 206.146 C 30.711 204.628,30.024 203.295,28.723 201.892 C 27.295 200.352,26.762 199.288,26.001 196.463 C 25.661 195.202,25.087 193.734,24.725 193.200 C 24.363 192.667,24.066 192.111,24.066 191.966 C 24.066 191.820,23.973 191.701,23.859 191.700 C 23.450 191.698,22.715 189.299,22.255 186.466 C 21.730 183.227,20.835 180.364,19.753 178.460 C 18.460 176.185,18.219 173.644,18.066 160.685 C 17.905 147.023,18.127 144.396,19.783 140.397 C 20.999 137.458,21.752 134.618,22.096 131.666 C 22.435 128.767,22.984 127.092,24.362 124.758 C 25.268 123.222,26.312 120.186,26.963 117.190 C 27.058 116.755,27.745 115.754,28.490 114.966 C 29.962 113.410,30.792 111.768,31.092 109.820 C 31.308 108.420,31.586 107.981,32.785 107.140 C 33.304 106.776,34.074 105.647,34.819 104.157 C 35.478 102.839,36.447 101.370,36.971 100.893 C 37.505 100.407,38.480 98.896,39.192 97.454 C 39.889 96.040,40.563 94.882,40.690 94.882 C 41.212 94.882,42.955 93.050,43.465 91.966 C 43.766 91.326,44.534 90.254,45.173 89.583 C 45.812 88.912,46.646 87.900,47.026 87.335 C 47.407 86.769,47.940 86.234,48.212 86.147 C 48.931 85.914,51.729 83.108,51.729 82.620 C 51.729 82.392,52.348 81.750,53.104 81.195 C 53.861 80.640,54.982 79.615,55.596 78.918 C 56.209 78.220,57.093 77.368,57.560 77.024 C 58.027 76.680,58.954 75.664,59.620 74.767 C 60.287 73.870,61.180 72.964,61.606 72.755 C 62.031 72.545,63.126 71.600,64.039 70.655 C 64.952 69.710,66.232 68.670,66.884 68.344 C 67.667 67.953,68.227 67.420,68.535 66.774 C 68.962 65.880,70.698 64.730,71.621 64.730 C 72.045 64.730,73.475 63.250,73.963 62.306 C 74.221 61.808,74.701 61.400,75.163 61.286 C 76.355 60.993,78.190 59.832,79.875 58.306 C 80.718 57.542,82.106 56.611,82.958 56.238 C 85.609 55.075,85.816 54.939,86.447 53.943 C 86.957 53.140,87.412 52.859,89.105 52.305 C 91.887 51.395,93.131 50.681,93.506 49.777 C 93.866 48.907,95.357 48.077,97.694 47.447 C 98.630 47.195,99.807 46.593,100.618 45.952 C 102.326 44.602,103.297 44.099,105.007 43.680 C 106.709 43.262,109.175 42.043,110.148 41.138 C 110.956 40.386,111.643 40.110,116.505 38.583 C 118.868 37.841,119.911 37.370,120.397 36.824 C 120.918 36.240,121.656 35.937,123.809 35.425 C 130.345 33.870,130.912 33.685,131.928 32.770 C 133.013 31.793,135.062 30.983,136.455 30.981 C 139.547 30.977,144.786 29.619,146.387 28.405 C 147.601 27.486,149.741 26.899,153.112 26.561 C 160.606 25.810,164.177 25.087,167.497 23.649 C 169.227 22.900,177.299 22.212,188.797 21.834 C 193.057 21.693,197.227 21.471,198.064 21.340 C 200.773 20.915,210.432 20.977,212.587 21.434 M187.690 42.743 C 186.625 42.945,184.696 43.120,183.402 43.132 C 181.424 43.150,180.788 43.278,179.391 43.938 C 177.247 44.950,177.206 44.959,171.508 45.635 C 163.977 46.529,162.410 46.953,158.230 49.230 C 157.697 49.521,156.141 50.019,154.772 50.337 C 150.971 51.222,149.312 51.904,148.683 52.839 C 148.098 53.710,147.548 53.985,145.370 54.492 C 143.198 54.997,141.464 55.850,141.055 56.615 C 140.501 57.649,139.198 58.645,138.398 58.645 C 137.290 58.645,135.049 60.003,134.652 60.917 C 134.422 61.446,133.762 62.012,132.731 62.563 C 131.101 63.435,127.524 66.230,127.524 66.632 C 127.524 66.758,126.808 67.427,125.934 68.119 C 125.059 68.810,123.721 70.269,122.960 71.360 C 122.199 72.452,120.926 74.052,120.131 74.916 C 119.336 75.780,118.475 77.047,118.216 77.732 C 117.931 78.490,117.246 79.426,116.465 80.127 C 115.473 81.017,115.010 81.736,114.418 83.308 C 113.255 86.394,113.169 86.584,112.926 86.584 C 112.332 86.584,110.633 89.375,110.219 91.031 C 109.299 94.716,108.686 96.363,107.897 97.261 C 106.765 98.550,105.991 102.272,104.966 111.342 C 104.863 112.254,104.409 113.854,103.957 114.897 C 102.312 118.695,102.172 125.278,103.670 128.454 C 104.345 129.888,104.565 130.735,104.568 131.912 C 104.569 132.770,104.755 134.156,104.981 134.993 C 105.206 135.830,105.525 137.635,105.689 139.004 C 105.948 141.155,106.449 144.093,106.929 146.273 C 107.006 146.619,107.494 147.373,108.014 147.949 C 108.616 148.616,109.175 149.693,109.554 150.916 C 110.683 154.561,110.955 155.133,112.281 156.648 C 113.242 157.747,113.665 158.494,113.799 159.335 C 114.093 161.174,115.827 163.736,116.792 163.758 C 116.899 163.760,117.496 164.807,118.120 166.083 C 119.218 168.332,122.756 172.354,126.421 175.523 C 126.952 175.982,127.607 176.699,127.878 177.116 C 128.149 177.534,129.207 178.490,130.230 179.240 C 131.252 179.991,132.554 181.106,133.122 181.719 C 134.235 182.920,135.538 183.685,137.432 184.251 C 138.244 184.493,139.081 185.080,140.045 186.080 C 140.824 186.889,141.568 187.552,141.696 187.552 C 142.170 187.552,146.335 189.573,146.335 189.803 C 146.335 189.934,146.468 190.041,146.630 190.041 C 146.792 190.041,147.321 190.341,147.805 190.707 C 148.323 191.097,150.041 191.734,151.971 192.250 C 155.816 193.278,156.404 193.520,157.516 194.534 C 158.848 195.749,163.891 196.951,167.680 196.955 C 169.937 196.958,172.945 197.706,174.827 198.731 C 176.479 199.631,176.816 199.712,178.976 199.720 C 180.270 199.726,182.012 199.914,182.849 200.138 C 185.030 200.724,202.145 200.728,204.564 200.144 C 205.477 199.923,207.231 199.739,208.462 199.733 C 210.491 199.724,210.906 199.623,212.888 198.651 C 215.206 197.516,217.152 197.082,221.035 196.836 C 224.367 196.625,227.072 195.595,228.359 194.047 C 228.621 193.731,231.139 192.496,233.088 191.728 C 233.562 191.542,234.459 190.854,235.082 190.200 C 235.705 189.547,236.593 188.855,237.056 188.663 C 237.715 188.390,238.153 187.799,239.073 185.941 C 239.915 184.242,240.484 183.441,241.079 183.120 C 242.265 182.479,243.027 180.916,243.986 177.154 C 244.448 175.342,245.010 173.423,245.234 172.891 C 247.781 166.837,247.849 155.933,245.369 151.037 C 244.672 149.662,244.108 148.149,243.462 145.920 C 242.905 143.997,241.464 141.633,240.847 141.631 C 240.670 141.630,239.797 140.499,238.907 139.117 C 237.213 136.487,234.710 134.725,232.650 134.712 C 231.785 134.707,231.438 134.484,231.000 133.653 C 230.258 132.246,221.741 130.290,216.354 130.290 C 215.528 130.290,214.492 129.955,212.935 129.184 L 210.701 128.077 198.040 128.077 C 180.906 128.077,180.175 127.950,178.521 124.672 C 178.123 123.882,177.440 122.828,177.004 122.328 C 176.218 121.428,176.215 121.410,176.663 120.392 C 176.911 119.826,177.308 118.854,177.544 118.231 C 178.036 116.932,179.832 115.629,182.849 114.381 C 183.838 113.972,184.878 113.432,185.160 113.181 C 186.071 112.371,206.915 112.502,208.457 113.328 C 209.081 113.662,210.379 114.011,211.362 114.109 C 220.967 115.072,230.484 116.593,230.981 117.245 C 231.882 118.425,237.936 120.885,239.939 120.885 C 240.434 120.885,240.770 121.116,241.045 121.646 C 241.578 122.670,242.544 123.538,243.711 124.041 C 245.219 124.693,246.198 125.444,246.776 126.394 C 247.087 126.906,247.796 127.479,248.483 127.773 C 249.678 128.285,251.729 130.277,251.729 130.924 C 251.729 131.120,252.279 131.740,252.951 132.302 C 253.680 132.911,254.463 133.935,254.890 134.838 C 255.319 135.745,256.101 136.766,256.838 137.382 C 257.882 138.255,258.130 138.665,258.472 140.091 C 259.366 143.810,259.987 145.525,260.985 147.028 C 264.122 151.754,264.409 173.359,261.374 176.287 C 260.318 177.306,258.645 182.256,258.645 184.362 C 258.645 185.192,258.407 185.584,257.169 186.797 C 256.357 187.593,255.188 189.115,254.570 190.180 C 253.952 191.245,253.006 192.583,252.467 193.154 C 251.929 193.725,251.015 194.783,250.437 195.505 C 249.051 197.235,248.488 197.766,247.013 198.732 C 246.336 199.175,245.097 200.243,244.260 201.105 C 242.533 202.885,241.204 203.873,240.538 203.873 C 239.743 203.873,238.345 204.714,237.344 205.794 C 236.562 206.638,235.899 206.987,233.887 207.612 C 230.975 208.516,229.452 209.220,228.492 210.103 C 227.582 210.941,223.784 212.027,220.332 212.436 C 216.641 212.874,214.637 213.409,212.441 214.545 C 211.094 215.243,210.255 215.492,209.249 215.496 C 208.498 215.499,206.701 215.683,205.256 215.906 C 201.541 216.478,185.650 216.476,182.158 215.902 C 180.788 215.677,179.046 215.493,178.285 215.492 C 177.224 215.491,176.388 215.233,174.689 214.379 C 172.838 213.449,171.888 213.177,168.880 212.714 C 159.177 211.222,158.838 211.143,157.400 210.024 C 156.224 209.110,154.847 208.587,152.552 208.182 C 149.682 207.676,147.422 206.814,146.588 205.908 C 145.872 205.131,143.464 203.880,142.675 203.875 C 141.454 203.869,138.411 202.652,137.740 201.902 C 137.349 201.465,135.792 200.443,134.282 199.630 C 129.930 197.289,129.403 196.597,128.538 192.080 C 127.969 189.107,127.411 187.906,126.292 187.246 C 125.357 186.694,124.732 185.932,123.936 184.371 C 123.634 183.778,122.830 183.185,121.125 182.296 C 119.812 181.611,118.341 180.710,117.856 180.293 C 114.675 177.553,104.596 177.685,102.035 180.500 C 101.557 181.026,100.529 181.696,99.753 181.990 C 96.252 183.311,93.543 185.940,93.105 188.439 C 92.850 189.897,91.892 191.990,91.086 192.854 C 89.551 194.498,89.692 202.559,91.275 203.668 C 91.563 203.869,92.144 205.213,92.643 206.830 C 93.348 209.115,93.678 209.779,94.404 210.373 C 95.805 211.519,96.074 211.768,96.924 212.704 C 97.363 213.187,98.345 213.898,99.106 214.284 C 99.868 214.670,100.782 215.332,101.138 215.755 C 102.363 217.210,103.950 217.636,108.990 217.860 C 113.731 218.070,115.323 218.520,115.809 219.786 C 116.027 220.356,118.880 222.204,120.225 222.648 C 120.851 222.855,121.944 223.549,122.654 224.192 C 123.851 225.276,126.883 226.684,129.270 227.265 C 129.698 227.369,130.304 227.801,130.617 228.224 C 131.607 229.563,136.297 231.535,138.491 231.535 C 138.824 231.535,139.681 232.080,140.396 232.746 C 141.809 234.062,142.702 234.417,145.648 234.837 C 147.988 235.170,150.007 235.858,152.483 237.165 C 153.507 237.705,154.752 238.213,155.250 238.294 C 155.748 238.375,158.876 238.818,162.202 239.279 C 167.186 239.970,168.587 240.266,170.175 240.963 C 171.455 241.524,172.863 241.889,174.364 242.048 C 175.608 242.179,177.434 242.480,178.423 242.716 C 183.764 243.992,213.347 243.124,217.012 241.585 C 220.119 240.280,220.643 240.149,226.296 239.273 C 232.295 238.343,233.186 238.093,234.331 237.016 C 235.245 236.156,235.976 235.872,239.557 234.981 C 243.089 234.103,243.952 233.712,245.069 232.485 C 245.544 231.963,246.138 231.535,246.389 231.535 C 246.824 231.535,249.872 230.428,251.037 229.847 C 251.342 229.695,251.941 229.080,252.369 228.479 C 252.798 227.878,253.299 227.386,253.484 227.386 C 254.299 227.386,257.934 225.360,259.137 224.234 C 259.864 223.555,261.099 222.677,261.882 222.284 C 263.275 221.584,264.726 220.194,264.735 219.550 C 264.744 218.975,265.967 218.041,267.119 217.731 C 268.332 217.404,268.841 216.949,269.544 215.563 C 269.802 215.052,270.465 214.428,271.085 214.112 C 271.881 213.706,272.322 213.219,272.729 212.298 C 273.467 210.631,274.211 209.719,275.308 209.139 C 275.941 208.804,276.547 208.040,277.336 206.584 C 277.956 205.441,278.920 204.049,279.478 203.491 C 280.669 202.300,281.381 200.991,282.003 198.852 C 282.328 197.736,282.757 197.024,283.547 196.293 C 285.160 194.801,286.295 192.162,286.304 189.883 C 286.309 188.630,287.078 186.589,288.139 185.012 C 290.187 181.969,290.558 177.906,290.371 160.581 C 290.201 144.793,289.704 140.555,287.722 137.990 C 287.080 137.159,286.308 134.860,286.304 133.768 C 286.296 131.776,284.711 127.801,283.925 127.801 C 283.376 127.801,282.571 126.589,281.902 124.755 C 281.500 123.653,280.867 122.634,280.102 121.858 C 279.452 121.199,278.326 119.645,277.598 118.404 C 276.593 116.689,275.819 115.779,274.376 114.612 C 273.331 113.768,272.476 112.957,272.476 112.809 C 272.476 112.388,266.882 107.038,265.158 105.811 C 264.304 105.204,262.957 104.104,262.163 103.367 C 261.369 102.630,259.848 101.597,258.783 101.071 C 257.718 100.546,256.411 99.693,255.878 99.178 C 255.346 98.662,254.287 97.996,253.526 97.698 C 251.692 96.981,250.208 96.088,248.991 94.970 C 247.823 93.897,246.515 93.223,245.599 93.223 C 244.070 93.223,240.090 91.879,239.135 91.040 C 237.792 89.861,236.909 89.450,234.990 89.111 C 234.079 88.950,231.840 88.558,230.014 88.240 C 227.958 87.881,226.181 87.395,225.344 86.962 C 224.372 86.459,223.251 86.190,221.333 85.997 C 219.870 85.850,218.237 85.589,217.704 85.417 C 216.013 84.868,194.545 84.794,190.041 85.320 C 182.281 86.228,181.299 86.383,180.221 86.871 C 179.135 87.363,175.610 88.146,171.508 88.806 C 169.124 89.190,167.703 89.835,166.061 91.277 C 165.334 91.916,164.253 92.491,163.163 92.822 C 161.860 93.216,161.098 93.667,160.128 94.617 C 159.416 95.314,158.389 96.224,157.846 96.638 C 157.303 97.052,156.516 97.975,156.098 98.690 C 155.679 99.404,154.898 100.428,154.363 100.964 C 153.728 101.599,153.210 102.518,152.875 103.598 C 152.178 105.850,151.295 107.884,151.015 107.884 C 150.562 107.884,149.401 110.270,148.819 112.396 C 148.258 114.448,148.233 115.051,148.319 124.291 L 148.411 134.025 149.162 135.450 C 149.575 136.234,150.231 137.125,150.620 137.431 C 151.009 137.737,151.559 138.652,151.842 139.464 C 153.439 144.042,160.473 150.761,163.669 150.761 C 163.862 150.761,164.428 151.117,164.928 151.553 C 167.344 153.660,169.908 154.061,182.849 154.355 C 187.969 154.471,191.666 154.672,192.253 154.866 C 193.502 155.281,203.715 155.292,207.471 154.883 C 210.889 154.511,211.234 154.592,212.790 156.126 C 213.472 156.799,214.525 157.601,215.129 157.909 C 216.252 158.482,216.458 158.675,218.649 161.208 C 220.648 163.519,220.571 164.636,218.286 166.472 C 217.662 166.974,217.151 167.556,217.151 167.766 C 217.151 168.340,215.792 169.294,214.970 169.298 C 213.580 169.304,206.061 171.222,204.168 172.053 L 202.259 172.891 191.655 172.879 C 183.354 172.869,180.841 172.784,180.083 172.487 C 176.250 170.987,174.917 170.589,172.116 170.110 C 170.374 169.812,167.831 169.442,166.464 169.287 C 163.658 168.969,163.069 168.737,162.137 167.582 C 161.446 166.725,159.555 165.775,156.907 164.954 C 155.199 164.424,154.900 164.224,154.384 163.259 C 154.192 162.900,153.160 162.209,151.980 161.649 C 150.610 160.998,149.660 160.332,149.161 159.672 C 148.748 159.125,147.674 157.985,146.775 157.139 C 145.876 156.294,145.005 155.435,144.839 155.231 C 144.673 155.027,143.821 154.129,142.946 153.236 C 141.838 152.104,141.355 151.394,141.355 150.896 C 141.355 149.758,140.676 148.747,139.349 147.911 C 138.123 147.139,138.114 147.121,137.198 143.762 C 136.692 141.906,135.882 139.578,135.398 138.589 C 133.293 134.291,133.018 132.311,133.016 121.438 C 133.015 111.518,133.177 110.291,135.053 106.086 C 135.663 104.716,136.607 101.814,137.150 99.635 C 138.040 96.064,138.211 95.636,138.892 95.284 C 140.019 94.701,141.355 92.943,141.355 92.043 C 141.355 91.460,141.770 90.857,143.015 89.627 C 143.928 88.725,144.675 87.865,144.675 87.716 C 144.675 87.566,145.391 86.877,146.266 86.183 C 147.140 85.490,147.981 84.789,148.133 84.626 C 150.349 82.251,151.027 81.689,152.040 81.389 C 152.758 81.175,153.588 80.608,154.279 79.859 C 155.248 78.807,155.750 78.547,158.557 77.639 C 161.113 76.813,162.013 76.376,163.145 75.409 C 164.715 74.069,166.933 73.343,171.231 72.761 C 174.897 72.264,176.219 71.959,178.008 71.199 C 182.454 69.309,187.217 68.728,197.925 68.771 C 211.475 68.825,221.657 69.854,223.928 71.397 C 224.309 71.655,227.300 72.300,232.227 73.185 C 236.416 73.938,237.896 74.422,237.900 75.042 C 237.904 75.777,240.831 77.164,244.125 77.992 C 244.761 78.152,245.764 78.755,246.476 79.406 C 247.159 80.030,248.154 80.768,248.686 81.046 C 249.981 81.721,250.755 82.593,251.445 84.151 C 251.760 84.864,252.371 85.734,252.803 86.084 C 253.235 86.435,253.901 87.418,254.283 88.268 C 254.963 89.784,255.922 90.725,257.332 91.261 C 257.715 91.406,258.186 91.881,258.378 92.315 C 260.183 96.394,277.653 96.471,281.604 92.418 C 282.137 91.872,283.130 91.113,283.810 90.733 C 285.089 90.018,286.294 88.334,286.303 87.249 C 286.309 86.465,287.060 84.980,288.004 83.886 C 290.706 80.756,290.598 71.542,287.822 68.289 C 287.134 67.482,286.513 66.432,286.414 65.907 C 286.190 64.710,285.151 63.474,283.783 62.776 C 283.190 62.474,282.394 61.728,282.003 61.108 C 281.234 59.891,279.048 58.652,277.659 58.647 C 276.602 58.644,273.394 57.702,272.072 57.007 C 270.674 56.273,270.390 56.286,268.880 57.153 C 265.404 59.148,260.432 59.088,258.912 57.032 C 258.364 56.291,255.611 54.772,254.816 54.772 C 253.873 54.772,251.718 53.750,250.761 52.849 C 249.882 52.021,249.171 51.677,247.303 51.178 C 242.864 49.991,241.354 49.460,240.249 48.694 C 237.779 46.983,236.334 46.605,229.599 45.910 C 225.485 45.485,222.953 44.917,220.956 43.973 C 219.490 43.279,218.887 43.154,217.012 43.151 C 215.795 43.150,213.243 42.964,211.342 42.739 C 206.794 42.199,190.547 42.202,187.690 42.743 M208.299 46.061 C 210.767 46.728,213.153 47.046,217.704 47.315 C 229.307 48.000,232.321 48.441,233.966 49.696 C 235.327 50.734,237.819 51.713,239.142 51.729 C 241.662 51.760,245.168 52.914,246.357 54.103 C 247.408 55.154,251.028 56.708,252.425 56.708 C 253.089 56.708,254.290 57.401,255.346 58.393 C 257.587 60.499,260.477 61.162,265.132 60.638 C 270.266 60.060,278.068 60.549,279.027 61.507 C 279.089 61.569,279.414 62.164,279.749 62.829 C 280.259 63.838,280.669 64.190,282.227 64.953 C 283.596 65.623,284.094 66.013,284.094 66.415 C 284.094 66.941,285.116 70.374,285.921 72.551 C 286.523 74.178,286.435 78.754,285.773 80.255 C 285.479 80.921,284.975 82.649,284.653 84.094 C 283.864 87.630,283.698 87.892,281.754 88.673 C 280.606 89.134,279.788 89.707,279.057 90.562 C 277.098 92.855,269.930 93.800,263.988 92.549 C 261.417 92.008,261.348 91.971,260.719 90.817 C 260.374 90.183,259.700 89.556,258.929 89.151 C 257.115 88.198,256.588 87.592,256.037 85.822 C 255.509 84.122,255.013 83.367,253.004 81.196 C 252.302 80.438,251.729 79.722,251.729 79.605 C 251.729 79.487,251.551 79.391,251.334 79.391 C 251.117 79.391,250.712 79.111,250.435 78.769 C 249.336 77.413,248.003 76.603,245.722 75.908 C 243.774 75.314,243.106 74.955,242.027 73.924 C 240.583 72.544,239.513 72.176,234.200 71.227 C 231.873 70.811,231.368 70.623,230.770 69.952 C 228.983 67.946,221.943 66.943,209.656 66.943 C 205.890 66.943,204.212 66.648,203.075 65.784 C 202.176 65.102,194.251 65.039,192.976 65.704 C 191.737 66.350,188.149 66.886,182.849 67.217 C 174.710 67.724,170.401 68.691,170.401 70.011 C 170.401 70.423,168.629 71.070,166.667 71.373 C 162.603 72.001,161.027 72.517,159.753 73.639 C 158.965 74.332,157.665 75.030,156.024 75.640 C 153.031 76.753,152.244 77.232,151.633 78.313 C 151.294 78.914,150.902 79.168,150.118 79.296 C 147.459 79.730,140.585 86.921,139.156 90.762 C 138.668 92.075,138.412 92.389,137.492 92.803 C 136.130 93.418,135.681 94.328,134.898 98.065 C 134.403 100.427,134.174 101.018,133.573 101.491 C 131.842 102.853,131.318 105.402,130.811 114.938 C 130.438 121.950,130.438 120.791,130.816 128.354 C 131.311 138.263,131.841 140.860,133.614 142.048 C 134.161 142.414,134.439 142.833,134.439 143.292 C 134.442 145.666,136.328 149.615,137.739 150.199 C 138.401 150.473,138.706 150.916,139.297 152.462 C 139.701 153.519,140.329 154.738,140.693 155.171 C 141.058 155.604,141.355 156.014,141.355 156.081 C 141.355 157.072,148.878 163.265,150.526 163.631 C 150.991 163.734,151.382 164.089,151.593 164.599 C 152.040 165.677,152.290 165.855,154.869 166.926 C 156.088 167.433,157.703 168.368,158.458 169.004 C 160.014 170.316,161.239 170.753,165.560 171.539 C 167.991 171.982,168.881 172.278,169.986 173.014 C 173.282 175.208,174.984 175.429,189.790 175.583 C 205.810 175.751,210.130 175.298,212.364 173.214 C 213.173 172.460,214.024 172.003,215.261 171.657 C 221.116 170.020,223.213 166.964,222.146 161.624 C 221.628 159.036,221.077 158.279,218.626 156.794 C 217.815 156.302,217.151 155.802,217.151 155.682 C 217.151 155.562,216.970 155.463,216.750 155.463 C 216.529 155.463,216.249 155.301,216.127 155.103 C 215.716 154.435,213.700 153.036,212.725 152.744 C 212.120 152.562,205.110 152.392,194.039 152.288 C 175.288 152.114,174.418 152.051,173.043 150.784 C 172.422 150.212,167.846 148.872,165.402 148.548 C 163.266 148.264,162.905 148.029,159.613 144.783 C 158.015 143.208,156.432 141.726,156.094 141.489 C 155.384 140.992,154.480 139.108,153.908 136.929 C 153.533 135.504,152.263 133.313,151.403 132.606 C 149.599 131.123,149.767 114.527,151.590 114.050 C 152.548 113.799,153.748 110.633,155.001 105.050 C 155.186 104.224,155.474 103.681,155.777 103.584 C 156.401 103.386,157.953 101.619,157.953 101.107 C 157.953 100.476,159.606 98.765,160.627 98.339 C 161.155 98.118,161.770 97.560,162.039 97.057 C 162.775 95.684,163.662 94.969,164.868 94.776 C 166.850 94.459,169.128 93.434,170.213 92.370 C 170.922 91.675,171.701 91.232,172.566 91.031 C 173.899 90.722,186.140 89.627,188.265 89.627 C 188.922 89.627,190.479 89.305,191.724 88.911 L 193.988 88.196 203.840 88.311 C 213.004 88.417,213.848 88.469,215.906 89.045 C 217.239 89.418,219.550 89.763,221.715 89.911 C 230.385 90.506,233.229 91.052,234.600 92.389 C 235.412 93.181,238.056 94.082,241.494 94.739 C 244.595 95.332,245.284 95.626,245.856 96.597 C 246.309 97.367,247.221 97.890,251.452 99.804 C 252.137 100.114,253.008 100.701,253.389 101.109 C 254.221 102.002,255.222 102.545,257.014 103.077 C 257.828 103.319,258.548 103.751,258.846 104.176 C 260.081 105.938,260.765 106.599,261.827 107.055 C 263.783 107.893,276.349 120.732,276.349 121.892 C 276.349 122.402,277.703 123.899,278.570 124.348 C 279.175 124.660,279.409 125.052,279.642 126.142 C 280.052 128.052,281.106 130.038,282.302 131.155 C 283.662 132.424,284.071 133.503,284.540 137.068 C 284.760 138.741,285.247 141.372,285.623 142.915 C 285.999 144.457,286.307 146.024,286.307 146.399 C 286.307 146.773,286.551 147.300,286.849 147.569 C 288.206 148.798,288.292 149.816,288.169 163.271 C 288.051 176.066,287.952 177.307,286.911 178.923 C 285.819 180.617,284.408 185.761,284.382 188.139 C 284.368 189.395,283.449 191.512,282.632 192.170 C 281.584 193.014,280.790 194.210,280.486 195.403 C 279.634 198.748,279.338 199.374,278.145 200.372 C 276.942 201.377,275.477 203.727,274.930 205.527 C 274.715 206.239,274.363 206.628,273.625 206.976 C 272.846 207.342,272.469 207.785,271.979 208.912 C 271.005 211.150,270.992 211.167,269.798 211.757 C 268.206 212.542,267.765 212.974,267.194 214.306 C 266.761 215.316,266.439 215.599,264.888 216.332 C 263.169 217.144,261.964 218.220,261.964 218.942 C 261.964 219.126,261.497 219.417,260.927 219.589 C 259.441 220.036,257.083 221.629,255.591 223.194 C 254.670 224.160,254.008 224.598,253.258 224.738 C 251.892 224.994,250.138 226.115,249.580 227.086 C 249.262 227.641,248.715 227.987,247.625 228.322 C 244.978 229.137,242.213 230.403,241.355 231.191 C 240.503 231.975,237.631 233.010,235.408 233.333 C 232.631 233.736,231.017 234.354,229.816 235.474 C 228.139 237.037,226.280 237.359,212.586 238.465 C 211.065 238.588,209.136 238.883,208.299 239.120 C 205.695 239.858,181.291 239.761,179.813 239.008 C 178.976 238.581,177.758 238.392,174.361 238.162 C 171.955 237.999,168.492 237.763,166.667 237.638 C 162.923 237.381,160.114 236.705,158.995 235.792 C 157.884 234.885,155.370 234.012,152.694 233.603 C 146.287 232.624,145.727 232.463,143.866 231.061 C 143.192 230.553,141.823 229.906,140.823 229.621 C 139.822 229.337,138.200 228.877,137.217 228.599 C 135.816 228.202,135.154 227.818,134.151 226.821 C 132.929 225.605,130.661 224.620,129.086 224.620 C 128.327 224.620,126.629 223.641,125.726 222.683 C 124.780 221.680,123.398 220.909,122.003 220.608 C 121.361 220.469,120.524 219.871,119.462 218.793 C 117.388 216.686,115.567 216.068,110.512 215.757 C 108.534 215.635,106.907 215.526,106.896 215.513 C 105.753 214.194,102.844 212.534,101.219 212.274 C 100.613 212.177,99.896 211.775,99.382 211.244 C 98.533 210.368,97.116 208.984,95.570 207.519 C 93.085 205.164,93.652 189.595,96.272 188.240 C 97.138 187.792,98.479 186.297,98.479 185.778 C 98.479 185.373,99.995 183.956,100.428 183.956 C 100.590 183.956,102.469 183.520,104.603 182.988 C 109.085 181.869,112.833 181.656,113.730 182.468 C 114.003 182.715,114.822 183.028,115.550 183.164 C 118.967 183.800,121.259 185.036,121.958 186.620 C 122.380 187.576,123.197 188.638,124.316 189.685 C 126.218 191.464,126.615 192.394,127.241 196.542 C 127.651 199.262,127.982 199.660,131.160 201.261 C 132.475 201.924,133.782 202.751,134.064 203.100 C 134.725 203.916,135.391 204.236,138.566 205.259 C 140.575 205.907,141.448 206.355,142.386 207.220 C 143.879 208.596,144.564 208.889,148.818 209.968 C 151.438 210.633,152.457 211.031,153.426 211.771 C 154.886 212.885,156.605 213.422,160.028 213.833 C 163.310 214.227,166.528 214.914,166.528 215.222 C 166.528 215.717,169.006 216.901,170.854 217.288 C 177.354 218.652,213.170 218.447,217.803 217.020 C 219.253 216.573,221.024 215.585,221.024 215.222 C 221.024 214.980,223.572 214.344,226.694 213.807 C 229.437 213.335,230.579 212.879,231.719 211.803 C 232.455 211.109,233.546 210.583,235.894 209.790 C 238.426 208.936,239.369 208.465,240.535 207.471 C 241.339 206.785,242.782 205.788,243.741 205.256 C 244.700 204.723,246.307 203.479,247.312 202.490 C 248.316 201.501,249.565 200.443,250.088 200.138 C 250.658 199.806,251.270 199.100,251.620 198.371 C 251.973 197.635,252.596 196.920,253.203 196.554 C 254.844 195.563,255.332 194.990,256.483 192.704 C 257.086 191.505,258.018 190.074,258.555 189.522 C 259.755 188.289,260.079 187.647,260.704 185.271 C 261.051 183.953,261.476 183.101,262.155 182.367 C 264.100 180.263,264.562 178.581,265.266 171.032 C 265.704 166.329,265.879 165.310,266.365 164.627 C 267.242 163.396,267.198 160.133,266.290 159.055 C 265.563 158.191,265.434 157.385,265.018 151.117 C 264.660 145.713,264.234 144.275,262.388 142.232 C 261.788 141.568,261.166 140.345,260.629 138.778 C 259.674 135.987,259.151 135.086,258.250 134.676 C 257.865 134.500,257.485 133.970,257.299 133.350 C 256.902 132.024,254.628 128.871,253.524 128.114 C 253.055 127.793,251.619 126.534,250.333 125.316 C 249.047 124.098,247.434 122.841,246.750 122.522 C 246.065 122.203,245.238 121.815,244.913 121.660 C 244.587 121.505,244.156 121.070,243.955 120.693 C 243.381 119.621,242.404 119.080,239.324 118.131 C 237.020 117.421,236.307 117.071,235.661 116.336 C 234.458 114.967,232.556 114.268,229.543 114.089 C 226.121 113.886,224.946 113.593,222.234 112.261 C 218.464 110.410,209.748 109.667,194.329 109.880 C 182.738 110.041,181.657 110.215,179.740 112.233 C 179.092 112.916,178.162 113.648,177.673 113.860 C 174.366 115.294,173.101 118.926,174.289 123.573 C 175.058 126.578,176.017 127.540,181.838 131.140 C 183.735 132.313,183.844 132.322,198.893 132.526 C 222.296 132.843,224.580 133.052,227.291 135.121 C 227.998 135.662,229.360 136.345,230.316 136.641 C 233.731 137.695,236.883 140.289,238.099 143.045 C 238.414 143.759,239.153 144.714,239.779 145.218 C 241.128 146.302,241.330 146.789,241.904 150.346 C 242.792 155.848,242.968 156.732,243.472 158.204 C 244.170 160.245,244.168 163.693,243.468 165.087 C 242.732 166.550,242.397 168.337,242.027 172.752 C 241.661 177.125,241.308 178.277,239.958 179.505 C 238.636 180.708,238.231 181.406,237.623 183.534 C 237.000 185.713,236.748 186.074,235.682 186.308 C 234.515 186.564,232.787 187.915,232.385 188.887 C 232.132 189.498,231.793 189.781,231.163 189.906 C 227.838 190.568,224.533 192.088,224.033 193.184 C 223.666 193.992,219.892 194.892,215.768 195.157 C 214.322 195.250,211.459 195.433,209.405 195.563 C 205.729 195.797,203.775 196.167,203.451 196.691 C 203.064 197.318,184.710 197.015,183.230 196.357 C 182.175 195.887,181.039 195.708,178.008 195.534 C 167.679 194.939,164.687 194.445,162.932 193.048 C 161.543 191.941,159.472 191.285,153.481 190.056 C 152.923 189.941,151.940 189.396,151.295 188.845 C 150.651 188.294,149.552 187.633,148.852 187.377 C 145.362 186.099,143.618 185.224,142.600 184.238 C 141.818 183.481,140.926 182.986,139.557 182.550 C 137.897 182.021,137.385 181.689,135.961 180.218 C 135.048 179.274,133.617 177.963,132.780 177.303 C 131.348 176.175,127.925 172.858,126.939 171.643 C 126.693 171.340,125.245 169.939,123.720 168.528 C 121.320 166.307,120.865 165.741,120.328 164.306 C 119.941 163.271,119.385 162.387,118.845 161.951 C 118.369 161.567,117.629 160.976,117.200 160.637 C 116.592 160.158,116.333 159.610,116.028 158.153 C 115.566 155.952,114.914 154.612,113.596 153.158 C 112.478 151.925,112.313 151.520,111.493 147.994 C 110.764 144.863,110.182 143.455,109.084 142.171 C 106.063 138.637,106.060 106.494,109.081 102.526 C 110.395 100.800,112.586 93.994,112.586 91.641 C 112.586 91.603,113.029 91.117,113.570 90.560 C 114.111 90.003,115.120 88.351,115.811 86.890 C 116.518 85.395,117.576 83.688,118.227 82.988 C 118.863 82.303,119.523 81.369,119.694 80.913 C 119.864 80.456,120.185 79.585,120.407 78.976 C 120.678 78.236,121.193 77.610,121.965 77.084 C 122.599 76.652,123.320 75.967,123.567 75.563 C 124.758 73.613,125.467 72.677,125.855 72.541 C 126.480 72.323,127.524 71.323,127.524 70.942 C 127.524 70.760,128.095 70.128,128.792 69.538 C 129.490 68.948,130.697 67.842,131.475 67.082 C 132.253 66.321,133.633 65.262,134.542 64.728 C 135.551 64.135,136.534 63.273,137.065 62.515 C 137.735 61.559,138.218 61.190,139.162 60.913 C 140.992 60.375,142.128 59.755,143.956 58.295 C 144.863 57.570,146.050 56.855,146.592 56.707 C 147.135 56.558,148.281 56.244,149.138 56.009 C 150.721 55.574,153.250 54.108,153.250 53.625 C 153.250 52.971,157.967 51.748,160.538 51.734 C 162.287 51.725,164.450 50.954,165.459 49.979 C 167.276 48.226,167.270 48.227,182.434 47.323 C 184.564 47.196,187.116 46.876,188.105 46.612 C 191.084 45.817,192.371 45.713,199.723 45.681 C 205.178 45.657,207.122 45.743,208.299 46.061 " stroke="none" fill="#fcc89b" fill-rule="evenodd"></path><path id="path1" d="M202.213 1.107 L 202.213 2.213 187.759 2.217 C 179.810 2.220,173.137 2.328,172.931 2.459 C 172.706 2.602,172.497 3.429,172.409 4.529 L 172.262 6.362 164.208 6.379 C 151.727 6.406,151.314 6.494,151.314 9.140 L 151.314 10.428 148.617 10.607 C 147.133 10.705,144.481 10.786,142.722 10.787 C 138.795 10.789,138.602 10.896,138.393 13.206 L 138.238 14.908 132.341 14.992 C 125.612 15.088,125.816 15.015,125.644 17.398 L 125.525 19.037 121.535 19.131 C 116.928 19.240,117.023 19.184,117.017 21.784 L 117.012 23.513 111.962 23.513 C 105.396 23.513,104.583 23.741,104.565 25.588 C 104.545 27.632,104.626 27.589,100.563 27.707 C 96.258 27.833,96.127 27.901,95.875 30.131 L 95.691 31.760 92.728 31.934 C 87.970 32.214,87.426 32.533,87.418 35.051 L 87.414 36.215 85.270 36.295 L 83.126 36.376 83.045 38.361 L 82.964 40.346 79.116 40.436 C 74.650 40.540,74.681 40.523,74.485 42.963 L 74.341 44.760 70.790 44.856 C 66.591 44.969,66.366 45.095,66.172 47.427 L 66.045 48.963 64.350 48.967 C 62.055 48.973,61.876 49.132,61.739 51.295 L 61.623 53.112 60.618 53.115 C 60.065 53.117,59.146 53.195,58.575 53.290 L 57.538 53.461 57.538 55.467 L 57.538 57.473 53.960 57.584 C 50.000 57.707,49.239 58.014,49.239 59.483 C 49.239 61.601,48.996 61.964,47.576 61.964 C 45.699 61.964,45.105 62.533,44.900 64.523 L 44.736 66.113 43.046 66.118 C 40.825 66.123,40.682 66.250,40.483 68.386 L 40.313 70.203 38.533 70.316 C 36.429 70.450,36.248 70.647,36.242 72.802 L 36.238 74.372 34.647 74.548 C 33.772 74.644,32.870 74.748,32.642 74.778 C 32.326 74.820,32.208 75.302,32.146 76.798 L 32.066 78.763 30.512 78.923 C 28.544 79.127,28.118 79.561,27.942 81.542 L 27.801 83.126 26.217 83.267 C 23.799 83.482,23.670 83.710,23.555 87.976 L 23.458 91.563 21.542 91.563 C 19.333 91.563,19.087 91.840,19.087 94.333 L 19.087 95.685 17.461 95.869 C 15.006 96.147,15.089 95.995,14.980 100.405 L 14.885 104.288 13.274 104.288 C 10.844 104.288,10.789 104.336,10.787 106.461 C 10.786 107.472,10.705 109.326,10.607 110.581 L 10.430 112.863 8.682 112.863 C 6.416 112.863,6.362 112.974,6.362 117.686 L 6.362 121.438 4.574 121.438 C 2.173 121.438,2.213 121.321,2.213 128.336 L 2.213 134.163 1.107 134.163 L 0.000 134.163 0.000 161.826 L 0.000 189.488 1.099 189.488 L 2.198 189.488 2.275 193.568 L 2.351 197.649 4.357 197.730 L 6.362 197.811 6.377 201.741 C 6.404 209.360,6.661 210.163,9.165 210.469 L 10.650 210.650 10.729 212.448 C 10.825 214.642,11.134 214.938,13.331 214.938 L 14.938 214.938 14.954 217.358 C 14.988 222.352,15.260 222.949,17.614 223.202 L 19.225 223.375 19.402 225.015 C 19.599 226.850,20.053 227.384,21.422 227.390 C 23.223 227.398,23.432 227.581,23.629 229.321 C 23.851 231.283,24.137 231.544,26.269 231.737 L 27.939 231.889 27.939 233.319 C 27.939 235.289,28.322 235.710,30.310 235.923 L 31.950 236.100 32.123 237.711 C 32.377 240.071,32.975 240.352,37.791 240.375 L 40.313 240.387 40.452 242.334 C 40.623 244.714,40.543 244.634,42.892 244.767 C 44.756 244.872,44.813 244.898,44.815 245.605 C 44.821 248.377,45.152 248.601,49.597 248.848 L 53.027 249.039 53.277 251.006 L 53.527 252.974 57.575 253.050 L 61.624 253.126 61.740 254.951 C 61.900 257.470,62.027 257.538,66.548 257.538 L 70.196 257.538 70.317 259.202 C 70.491 261.615,70.275 261.537,77.053 261.634 L 82.988 261.718 82.992 263.432 C 82.998 266.103,82.647 265.963,89.578 266.059 L 95.637 266.143 95.814 267.845 C 96.066 270.248,95.562 270.114,104.716 270.209 L 112.863 270.294 112.863 271.800 C 112.863 274.637,111.172 274.412,132.503 274.412 L 151.037 274.412 151.037 275.519 L 151.037 276.625 170.263 276.625 L 189.488 276.625 189.488 275.519 L 189.488 274.412 208.091 274.408 C 218.323 274.406,226.863 274.297,227.069 274.166 C 227.294 274.024,227.503 273.198,227.590 272.105 L 227.737 270.282 237.921 270.203 C 249.428 270.114,248.729 270.268,248.908 267.793 L 249.027 266.144 257.040 266.060 C 266.278 265.962,265.837 266.101,265.837 263.294 L 265.837 261.687 271.731 261.687 C 278.691 261.687,278.602 261.718,278.779 259.273 L 278.899 257.613 284.194 257.456 C 291.175 257.248,290.943 257.341,291.262 254.633 L 291.425 253.250 295.279 253.173 C 299.837 253.082,299.862 253.069,299.862 250.727 L 299.862 248.963 303.614 248.963 C 308.340 248.963,308.437 248.915,308.437 246.602 L 308.437 244.813 312.290 244.813 C 316.941 244.813,317.012 244.773,317.012 242.166 L 317.012 240.387 320.401 240.383 C 325.204 240.378,325.581 240.143,325.586 237.149 L 325.588 236.262 327.593 236.181 L 329.599 236.100 329.680 233.956 L 329.760 231.812 333.552 231.808 C 338.121 231.803,338.113 231.807,338.261 229.491 L 338.376 227.685 340.350 227.605 L 342.324 227.524 342.405 225.519 L 342.486 223.513 344.480 223.508 C 349.234 223.494,350.757 222.930,350.764 221.178 C 350.772 219.409,350.974 219.159,352.553 218.962 C 354.606 218.705,354.971 218.360,355.123 216.531 L 355.250 214.998 357.016 214.886 C 359.185 214.748,359.408 214.537,359.557 212.483 L 359.675 210.850 361.341 210.730 C 363.404 210.581,363.762 210.173,363.762 207.969 L 363.762 206.362 365.369 206.362 C 367.572 206.362,367.949 206.023,368.157 203.849 L 368.326 202.075 369.807 201.894 C 371.675 201.666,371.886 201.442,372.058 199.507 L 372.199 197.931 373.671 197.720 C 376.339 197.338,376.478 197.064,376.484 192.185 L 376.487 189.488 378.368 189.488 C 380.719 189.488,380.913 189.297,380.913 186.977 L 380.913 185.129 382.577 185.008 C 384.898 184.840,384.910 184.819,385.014 180.347 L 385.104 176.487 386.964 176.487 C 389.500 176.487,389.488 176.508,389.488 172.006 L 389.488 168.188 391.128 168.188 C 393.575 168.188,393.638 168.071,393.638 163.504 L 393.638 159.690 395.329 159.536 C 397.771 159.315,397.638 159.810,397.730 150.609 L 397.811 142.462 398.905 142.462 L 400.000 142.462 400.000 117.012 L 400.000 91.563 398.893 91.563 L 397.787 91.563 397.787 85.533 C 397.787 78.598,397.873 78.838,395.380 78.838 L 393.638 78.838 393.638 75.086 C 393.638 70.360,393.590 70.263,391.277 70.263 L 389.488 70.263 389.488 66.985 C 389.488 62.101,389.227 61.687,386.146 61.687 L 385.086 61.687 385.005 59.682 L 384.924 57.676 382.918 57.595 L 380.913 57.514 380.904 55.659 C 380.880 50.756,380.332 49.243,378.578 49.236 C 376.777 49.227,376.568 49.044,376.371 47.304 C 376.149 45.343,375.863 45.081,373.731 44.888 L 372.061 44.736 372.061 43.306 C 372.061 41.336,371.678 40.915,369.690 40.702 L 368.050 40.526 367.877 38.914 C 367.623 36.550,367.028 36.273,362.172 36.250 L 359.613 36.238 359.613 34.601 C 359.613 32.473,359.445 32.089,358.515 32.089 C 358.096 32.089,357.176 32.009,356.470 31.913 L 355.187 31.737 355.187 30.306 C 355.187 27.935,355.013 27.836,350.651 27.708 L 346.888 27.598 346.888 26.091 C 346.888 23.493,346.925 23.513,342.314 23.513 L 338.313 23.513 338.308 21.784 C 338.302 19.182,338.401 19.240,333.759 19.130 L 329.737 19.035 329.737 17.318 C 329.737 14.939,329.734 14.938,325.150 14.938 L 321.226 14.938 321.111 13.121 C 320.970 10.908,320.827 10.798,318.094 10.793 C 316.938 10.790,314.293 10.707,312.215 10.607 L 308.437 10.426 308.433 8.878 C 308.426 6.352,308.990 6.512,299.766 6.413 L 291.627 6.325 291.510 4.707 C 291.315 2.013,292.380 2.213,278.251 2.213 L 265.837 2.213 265.837 1.107 L 265.837 0.000 234.025 0.000 L 202.213 0.000 202.213 1.107 M213.923 17.666 C 215.100 18.186,215.770 18.257,219.509 18.257 C 223.201 18.257,223.878 18.327,224.673 18.790 C 225.930 19.521,230.528 20.132,237.206 20.456 C 244.908 20.829,248.405 21.543,250.612 23.192 C 251.472 23.834,252.117 23.971,256.923 24.528 C 262.770 25.205,264.990 25.887,265.582 27.184 C 265.932 27.954,267.894 28.540,272.295 29.191 C 274.873 29.572,277.732 30.679,277.732 31.296 C 277.732 31.791,279.175 32.415,281.777 33.046 C 285.481 33.943,285.995 34.165,287.275 35.412 C 288.349 36.458,291.466 37.898,292.656 37.898 C 293.299 37.898,295.159 39.597,295.159 40.185 C 295.159 40.470,295.873 40.839,297.345 41.313 C 299.531 42.019,302.351 43.534,302.351 44.004 C 302.351 44.381,304.321 45.546,305.337 45.769 C 306.313 45.983,308.079 47.645,308.325 48.579 C 308.424 48.959,308.849 49.275,309.538 49.481 C 310.885 49.885,313.310 51.515,314.385 52.739 C 314.841 53.259,316.015 54.209,316.995 54.850 C 317.974 55.492,319.156 56.562,319.623 57.229 C 320.089 57.895,320.893 58.668,321.410 58.944 C 322.483 59.520,323.928 60.831,323.928 61.229 C 323.928 61.735,325.340 63.348,326.150 63.767 C 326.595 63.997,327.590 65.119,328.360 66.261 C 329.131 67.403,330.014 68.490,330.323 68.677 C 331.123 69.162,333.641 72.684,333.982 73.795 C 334.159 74.373,334.573 74.886,335.067 75.142 C 335.813 75.528,337.196 77.880,337.203 78.775 C 337.208 79.357,338.486 81.196,339.220 81.678 C 340.122 82.268,341.355 84.770,341.358 86.016 C 341.362 87.313,342.479 89.669,343.366 90.251 C 344.407 90.933,345.371 93.273,345.902 96.404 C 346.492 99.883,346.740 100.643,347.565 101.514 C 348.976 103.003,349.743 106.897,350.074 114.246 C 350.282 118.873,350.930 123.185,351.620 124.539 C 352.398 126.064,352.404 133.977,351.629 134.837 C 350.773 135.786,350.464 137.826,350.060 145.218 C 349.848 149.103,349.552 152.905,349.403 153.665 C 348.978 155.832,348.028 158.570,347.486 159.188 C 346.910 159.844,346.220 162.038,345.785 164.592 C 345.267 167.635,344.736 168.898,343.515 170.001 C 342.270 171.126,341.777 172.371,341.470 175.170 C 341.223 177.415,340.403 179.150,339.235 179.901 C 338.554 180.338,338.197 180.856,337.902 181.836 C 337.283 183.888,335.592 187.231,335.017 187.539 C 334.402 187.868,333.632 189.139,332.946 190.960 C 332.648 191.749,331.931 192.783,331.189 193.495 C 330.049 194.587,329.513 195.366,327.839 198.360 C 327.535 198.903,326.734 199.801,326.058 200.355 C 325.382 200.909,324.571 201.910,324.257 202.579 C 323.727 203.706,323.065 204.392,321.355 205.586 C 320.986 205.844,320.611 206.418,320.523 206.861 C 320.293 208.011,319.135 209.271,317.828 209.794 C 317.118 210.078,316.533 210.562,316.237 211.113 C 315.554 212.378,314.521 213.452,313.416 214.045 C 312.792 214.380,312.238 215.003,311.857 215.798 C 311.186 217.196,310.905 217.462,309.544 217.980 C 308.253 218.471,307.656 219.014,307.007 220.286 C 306.623 221.038,306.117 221.501,305.268 221.877 C 304.173 222.361,303.502 222.915,301.936 224.626 C 301.632 224.958,300.512 225.797,299.447 226.489 C 298.382 227.182,296.956 228.287,296.279 228.946 C 295.003 230.187,293.459 231.049,291.913 231.384 C 291.283 231.520,290.789 231.920,290.244 232.732 C 289.655 233.611,288.902 234.183,287.084 235.131 C 285.771 235.816,284.222 236.843,283.642 237.414 C 283.063 237.984,282.456 238.451,282.294 238.451 C 280.702 238.451,277.811 239.896,276.567 241.314 C 275.201 242.872,274.671 243.132,270.626 244.233 C 269.982 244.408,269.014 244.989,268.444 245.543 C 267.157 246.793,265.612 247.476,263.485 247.734 C 261.223 248.010,259.560 248.767,258.981 249.786 C 258.218 251.127,256.728 251.628,250.687 252.573 C 249.042 252.830,248.463 253.066,247.505 253.868 C 245.823 255.276,244.563 255.733,240.082 256.556 C 237.893 256.958,235.852 257.467,235.547 257.688 C 235.242 257.908,234.682 258.337,234.302 258.640 C 233.352 259.398,229.953 260.217,226.817 260.443 C 223.093 260.711,219.641 261.561,217.819 262.658 C 216.791 263.277,215.682 263.671,214.438 263.859 C 213.420 264.012,211.715 264.273,210.650 264.438 C 209.585 264.604,206.100 264.869,202.905 265.028 C 199.543 265.195,196.521 265.484,195.731 265.715 C 194.981 265.934,193.962 266.113,193.467 266.113 C 192.972 266.113,192.217 266.252,191.788 266.421 C 191.360 266.590,189.640 266.822,187.967 266.937 C 185.738 267.089,184.381 267.345,182.894 267.892 L 180.865 268.639 164.775 268.524 C 149.185 268.412,148.605 268.389,146.058 267.777 C 144.613 267.430,142.252 267.088,140.812 267.016 C 139.227 266.937,138.080 266.751,137.907 266.545 C 137.292 265.812,134.208 265.313,128.492 265.022 C 122.757 264.729,117.674 264.106,116.598 263.563 C 116.293 263.410,115.422 262.868,114.661 262.359 C 113.217 261.392,111.753 261.067,105.491 260.325 C 102.235 259.939,100.201 259.273,99.319 258.304 C 98.513 257.417,95.939 256.434,94.405 256.427 C 91.572 256.414,88.513 255.351,86.860 253.805 C 85.798 252.812,84.745 252.420,82.434 252.157 C 80.497 251.936,78.193 250.830,77.425 249.750 C 76.807 248.882,75.138 248.017,73.482 247.707 C 72.931 247.603,71.867 246.968,70.956 246.198 C 69.867 245.277,68.647 244.593,66.988 243.975 C 64.259 242.958,62.872 242.039,62.634 241.090 C 62.536 240.702,62.140 240.312,61.663 240.134 C 61.220 239.969,60.453 239.689,59.959 239.512 C 59.464 239.335,58.863 239.023,58.623 238.820 C 58.383 238.617,58.051 238.451,57.887 238.451 C 57.722 238.451,56.903 237.783,56.067 236.967 C 55.231 236.150,53.998 235.217,53.329 234.893 C 52.159 234.326,51.208 233.339,50.814 232.280 C 50.711 232.005,49.848 231.425,48.896 230.992 C 47.022 230.140,46.122 229.345,45.664 228.135 C 45.503 227.710,44.981 227.150,44.504 226.890 C 43.066 226.107,42.138 225.233,41.649 224.201 C 41.384 223.644,40.686 222.915,40.025 222.506 C 38.614 221.634,37.912 220.807,37.904 220.007 C 37.896 219.243,36.616 217.704,35.988 217.704 C 35.274 217.704,34.186 216.414,33.072 214.246 C 32.525 213.181,31.831 212.103,31.530 211.851 C 31.228 211.598,30.982 211.331,30.982 211.257 C 30.982 211.184,30.627 210.743,30.193 210.278 C 29.729 209.782,29.205 208.726,28.923 207.722 C 28.447 206.025,28.055 205.474,26.378 204.147 C 25.443 203.406,24.066 200.117,24.066 198.623 C 24.066 197.587,23.812 196.957,23.393 196.957 C 22.290 196.957,21.227 194.731,20.613 191.129 C 19.888 186.883,19.369 185.318,18.259 184.044 C 15.111 180.426,15.090 138.455,18.234 133.610 C 19.568 131.556,19.596 131.472,20.340 127.524 C 21.194 122.983,21.644 121.759,22.838 120.735 C 23.698 119.996,23.885 119.591,24.369 117.416 C 25.041 114.397,26.041 112.281,27.221 111.381 C 28.086 110.721,28.503 109.951,29.459 107.253 C 29.717 106.526,30.398 105.336,30.973 104.609 C 31.548 103.882,32.545 102.263,33.189 101.013 C 34.013 99.412,34.759 98.402,35.713 97.598 C 36.786 96.693,37.166 96.136,37.549 94.909 C 38.047 93.313,38.599 92.650,39.887 92.102 C 40.365 91.899,40.695 91.496,40.809 90.977 C 41.026 89.990,43.337 86.443,43.972 86.123 C 44.225 85.996,45.227 85.021,46.200 83.956 C 47.172 82.891,48.783 81.294,49.779 80.408 C 50.775 79.521,51.634 78.675,51.687 78.528 C 51.819 78.161,56.693 73.284,57.483 72.728 C 57.833 72.482,58.715 71.576,59.443 70.715 C 60.996 68.878,63.240 67.136,64.839 66.525 C 65.643 66.218,66.160 65.770,66.605 64.998 C 67.223 63.923,68.506 63.062,70.035 62.695 C 70.527 62.577,71.129 61.988,71.833 60.936 C 72.713 59.620,73.136 59.260,74.353 58.792 C 75.368 58.402,76.153 57.832,76.920 56.931 C 78.103 55.540,80.201 54.204,82.060 53.656 C 82.807 53.436,83.314 53.085,83.513 52.648 C 83.727 52.178,84.677 51.577,86.700 50.633 C 88.528 49.779,89.754 49.026,90.050 48.574 C 90.659 47.644,93.346 45.972,94.594 45.746 C 95.843 45.520,97.632 44.625,97.821 44.132 C 98.103 43.398,100.197 42.286,102.300 41.753 C 105.279 40.999,105.726 40.776,106.428 39.697 C 107.265 38.411,108.178 38.007,110.763 37.781 C 113.319 37.558,114.249 37.146,115.791 35.554 C 117.013 34.292,118.477 33.776,123.705 32.762 C 125.643 32.386,126.378 32.094,127.488 31.260 C 128.998 30.126,130.278 29.730,135.897 28.655 C 138.694 28.121,139.608 27.830,140.287 27.258 C 142.087 25.743,144.204 25.113,149.101 24.635 C 155.392 24.020,156.319 23.862,156.937 23.296 C 158.703 21.679,164.077 20.702,173.162 20.344 C 178.356 20.139,182.509 19.548,183.961 18.808 C 184.905 18.326,185.593 18.257,189.443 18.257 C 192.942 18.257,194.067 18.162,194.918 17.796 C 197.399 16.727,211.581 16.630,213.923 17.666 M191.286 45.922 C 190.526 46.037,189.094 46.348,188.105 46.612 C 187.116 46.876,184.564 47.196,182.434 47.323 C 167.270 48.227,167.276 48.226,165.459 49.979 C 164.450 50.954,162.287 51.725,160.538 51.734 C 157.967 51.748,153.250 52.971,153.250 53.625 C 153.250 54.108,150.721 55.574,149.138 56.009 C 148.281 56.244,147.135 56.558,146.592 56.707 C 146.050 56.855,144.863 57.570,143.956 58.295 C 142.128 59.755,140.992 60.375,139.162 60.913 C 138.218 61.190,137.735 61.559,137.065 62.515 C 136.534 63.273,135.551 64.135,134.542 64.728 C 133.633 65.262,132.253 66.321,131.475 67.082 C 130.697 67.842,129.490 68.948,128.792 69.538 C 128.095 70.128,127.524 70.760,127.524 70.942 C 127.524 71.323,126.480 72.323,125.855 72.541 C 125.467 72.677,124.758 73.613,123.567 75.563 C 123.320 75.967,122.599 76.652,121.965 77.084 C 121.193 77.610,120.678 78.236,120.407 78.976 C 120.185 79.585,119.864 80.456,119.694 80.913 C 119.523 81.369,118.863 82.303,118.227 82.988 C 117.576 83.688,116.518 85.395,115.811 86.890 C 115.120 88.351,114.111 90.003,113.570 90.560 C 113.029 91.117,112.586 91.603,112.586 91.641 C 112.586 93.994,110.395 100.800,109.081 102.526 C 107.236 104.949,106.335 118.781,107.163 131.950 C 107.646 139.622,107.855 140.734,109.084 142.171 C 110.182 143.455,110.764 144.863,111.493 147.994 C 112.313 151.520,112.478 151.925,113.596 153.158 C 114.914 154.612,115.566 155.952,116.028 158.153 C 116.333 159.610,116.592 160.158,117.200 160.637 C 117.629 160.976,118.369 161.567,118.845 161.951 C 119.385 162.387,119.941 163.271,120.328 164.306 C 120.865 165.741,121.320 166.307,123.720 168.528 C 125.245 169.939,126.693 171.340,126.939 171.643 C 127.925 172.858,131.348 176.175,132.780 177.303 C 133.617 177.963,135.048 179.274,135.961 180.218 C 137.385 181.689,137.897 182.021,139.557 182.550 C 140.926 182.986,141.818 183.481,142.600 184.238 C 143.618 185.224,145.362 186.099,148.852 187.377 C 149.552 187.633,150.651 188.294,151.295 188.845 C 151.940 189.396,152.923 189.941,153.481 190.056 C 159.472 191.285,161.543 191.941,162.932 193.048 C 164.687 194.445,167.679 194.939,178.008 195.534 C 181.039 195.708,182.175 195.887,183.230 196.357 C 184.710 197.015,203.064 197.318,203.451 196.691 C 203.775 196.167,205.729 195.797,209.405 195.563 C 211.459 195.433,214.322 195.250,215.768 195.157 C 219.892 194.892,223.666 193.992,224.033 193.184 C 224.533 192.088,227.838 190.568,231.163 189.906 C 231.793 189.781,232.132 189.498,232.385 188.887 C 232.787 187.915,234.515 186.564,235.682 186.308 C 236.748 186.074,237.000 185.713,237.623 183.534 C 238.231 181.406,238.636 180.708,239.958 179.505 C 241.308 178.277,241.661 177.125,242.027 172.752 C 242.397 168.337,242.732 166.550,243.468 165.087 C 244.168 163.693,244.170 160.245,243.472 158.204 C 242.968 156.732,242.792 155.848,241.904 150.346 C 241.330 146.789,241.128 146.302,239.779 145.218 C 239.153 144.714,238.414 143.759,238.099 143.045 C 236.883 140.289,233.731 137.695,230.316 136.641 C 229.360 136.345,227.998 135.662,227.291 135.121 C 224.580 133.052,222.296 132.843,198.893 132.526 C 183.844 132.322,183.735 132.313,181.838 131.140 C 176.017 127.540,175.058 126.578,174.289 123.573 C 173.101 118.926,174.366 115.294,177.673 113.860 C 178.162 113.648,179.092 112.916,179.740 112.233 C 181.657 110.215,182.738 110.041,194.329 109.880 C 209.748 109.667,218.464 110.410,222.234 112.261 C 224.946 113.593,226.121 113.886,229.543 114.089 C 232.556 114.268,234.458 114.967,235.661 116.336 C 236.307 117.071,237.020 117.421,239.324 118.131 C 242.404 119.080,243.381 119.621,243.955 120.693 C 244.156 121.070,244.587 121.505,244.913 121.660 C 245.238 121.815,246.065 122.203,246.750 122.522 C 247.434 122.841,249.047 124.098,250.333 125.316 C 251.619 126.534,253.055 127.793,253.524 128.114 C 254.628 128.871,256.902 132.024,257.299 133.350 C 257.485 133.970,257.865 134.500,258.250 134.676 C 259.151 135.086,259.674 135.987,260.629 138.778 C 261.166 140.345,261.788 141.568,262.388 142.232 C 264.234 144.275,264.660 145.713,265.018 151.117 C 265.434 157.385,265.563 158.191,266.290 159.055 C 267.198 160.133,267.242 163.396,266.365 164.627 C 265.879 165.310,265.704 166.329,265.266 171.032 C 264.562 178.581,264.100 180.263,262.155 182.367 C 261.476 183.101,261.051 183.953,260.704 185.271 C 260.079 187.647,259.755 188.289,258.555 189.522 C 258.018 190.074,257.086 191.505,256.483 192.704 C 255.332 194.990,254.844 195.563,253.203 196.554 C 252.596 196.920,251.973 197.635,251.620 198.371 C 251.270 199.100,250.658 199.806,250.088 200.138 C 249.565 200.443,248.316 201.501,247.312 202.490 C 246.307 203.479,244.700 204.723,243.741 205.256 C 242.782 205.788,241.339 206.785,240.535 207.471 C 239.369 208.465,238.426 208.936,235.894 209.790 C 233.546 210.583,232.455 211.109,231.719 211.803 C 230.579 212.879,229.437 213.335,226.694 213.807 C 223.572 214.344,221.024 214.980,221.024 215.222 C 221.024 215.585,219.253 216.573,217.803 217.020 C 213.170 218.447,177.354 218.652,170.854 217.288 C 169.006 216.901,166.528 215.717,166.528 215.222 C 166.528 214.914,163.310 214.227,160.028 213.833 C 156.605 213.422,154.886 212.885,153.426 211.771 C 152.457 211.031,151.438 210.633,148.818 209.968 C 144.564 208.889,143.879 208.596,142.386 207.220 C 141.448 206.355,140.575 205.907,138.566 205.259 C 135.391 204.236,134.725 203.916,134.064 203.100 C 133.782 202.751,132.475 201.924,131.160 201.261 C 127.982 199.660,127.651 199.262,127.241 196.542 C 126.615 192.394,126.218 191.464,124.316 189.685 C 123.197 188.638,122.380 187.576,121.958 186.620 C 121.259 185.036,118.967 183.800,115.550 183.164 C 114.822 183.028,114.003 182.715,113.730 182.468 C 112.833 181.656,109.085 181.869,104.603 182.988 C 102.469 183.520,100.590 183.956,100.428 183.956 C 99.995 183.956,98.479 185.373,98.479 185.778 C 98.479 186.297,97.138 187.792,96.272 188.240 C 93.652 189.595,93.085 205.164,95.570 207.519 C 97.116 208.984,98.533 210.368,99.382 211.244 C 99.896 211.775,100.613 212.177,101.219 212.274 C 102.844 212.534,105.753 214.194,106.896 215.513 C 106.907 215.526,108.534 215.635,110.512 215.757 C 115.567 216.068,117.388 216.686,119.462 218.793 C 120.524 219.871,121.361 220.469,122.003 220.608 C 123.398 220.909,124.780 221.680,125.726 222.683 C 126.629 223.641,128.327 224.620,129.086 224.620 C 130.661 224.620,132.929 225.605,134.151 226.821 C 135.154 227.818,135.816 228.202,137.217 228.599 C 138.200 228.877,139.822 229.337,140.823 229.621 C 141.823 229.906,143.192 230.553,143.866 231.061 C 145.727 232.463,146.287 232.624,152.694 233.603 C 155.370 234.012,157.884 234.885,158.995 235.792 C 160.114 236.705,162.923 237.381,166.667 237.638 C 168.492 237.763,171.955 237.999,174.361 238.162 C 177.758 238.392,178.976 238.581,179.813 239.008 C 181.291 239.761,205.695 239.858,208.299 239.120 C 209.136 238.883,211.065 238.588,212.586 238.465 C 226.280 237.359,228.139 237.037,229.816 235.474 C 231.017 234.354,232.631 233.736,235.408 233.333 C 237.631 233.010,240.503 231.975,241.355 231.191 C 242.213 230.403,244.978 229.137,247.625 228.322 C 248.715 227.987,249.262 227.641,249.580 227.086 C 250.138 226.115,251.892 224.994,253.258 224.738 C 254.008 224.598,254.670 224.160,255.591 223.194 C 257.083 221.629,259.441 220.036,260.927 219.589 C 261.497 219.417,261.964 219.126,261.964 218.942 C 261.964 218.220,263.169 217.144,264.888 216.332 C 266.439 215.599,266.761 215.316,267.194 214.306 C 267.765 212.974,268.206 212.542,269.798 211.757 C 270.992 211.167,271.005 211.150,271.979 208.912 C 272.469 207.785,272.846 207.342,273.625 206.976 C 274.363 206.628,274.715 206.239,274.930 205.527 C 275.477 203.727,276.942 201.377,278.145 200.372 C 279.338 199.374,279.634 198.748,280.486 195.403 C 280.790 194.210,281.584 193.014,282.632 192.170 C 283.449 191.512,284.368 189.395,284.382 188.139 C 284.408 185.761,285.819 180.617,286.911 178.923 C 287.952 177.307,288.051 176.066,288.169 163.271 C 288.292 149.816,288.206 148.798,286.849 147.569 C 286.551 147.300,286.307 146.773,286.307 146.399 C 286.307 146.024,285.999 144.457,285.623 142.915 C 285.247 141.372,284.760 138.741,284.540 137.068 C 284.071 133.503,283.662 132.424,282.302 131.155 C 281.106 130.038,280.052 128.052,279.642 126.142 C 279.409 125.052,279.175 124.660,278.570 124.348 C 277.703 123.899,276.349 122.402,276.349 121.892 C 276.349 120.732,263.783 107.893,261.827 107.055 C 260.765 106.599,260.081 105.938,258.846 104.176 C 258.548 103.751,257.828 103.319,257.014 103.077 C 255.222 102.545,254.221 102.002,253.389 101.109 C 253.008 100.701,252.137 100.114,251.452 99.804 C 247.221 97.890,246.309 97.367,245.856 96.597 C 245.284 95.626,244.595 95.332,241.494 94.739 C 238.056 94.082,235.412 93.181,234.600 92.389 C 233.229 91.052,230.385 90.506,221.715 89.911 C 219.550 89.763,217.239 89.418,215.906 89.045 C 213.848 88.469,213.004 88.417,203.840 88.311 L 193.988 88.196 191.724 88.911 C 190.479 89.305,188.922 89.627,188.265 89.627 C 186.140 89.627,173.899 90.722,172.566 91.031 C 171.701 91.232,170.922 91.675,170.213 92.370 C 169.128 93.434,166.850 94.459,164.868 94.776 C 163.662 94.969,162.775 95.684,162.039 97.057 C 161.770 97.560,161.155 98.118,160.627 98.339 C 159.606 98.765,157.953 100.476,157.953 101.107 C 157.953 101.619,156.401 103.386,155.777 103.584 C 155.474 103.681,155.186 104.224,155.001 105.050 C 153.748 110.633,152.548 113.799,151.590 114.050 C 149.767 114.527,149.599 131.123,151.403 132.606 C 152.263 133.313,153.533 135.504,153.908 136.929 C 154.480 139.108,155.384 140.992,156.094 141.489 C 156.432 141.726,158.015 143.208,159.613 144.783 C 162.905 148.029,163.266 148.264,165.402 148.548 C 167.846 148.872,172.422 150.212,173.043 150.784 C 174.418 152.051,175.288 152.114,194.039 152.288 C 205.110 152.392,212.120 152.562,212.725 152.744 C 213.700 153.036,215.716 154.435,216.127 155.103 C 216.249 155.301,216.529 155.463,216.750 155.463 C 216.970 155.463,217.151 155.562,217.151 155.682 C 217.151 155.802,217.815 156.302,218.626 156.794 C 221.077 158.279,221.628 159.036,222.146 161.624 C 223.213 166.964,221.116 170.020,215.261 171.657 C 214.024 172.003,213.173 172.460,212.364 173.214 C 210.130 175.298,205.810 175.751,189.790 175.583 C 174.984 175.429,173.282 175.208,169.986 173.014 C 168.881 172.278,167.991 171.982,165.560 171.539 C 161.239 170.753,160.014 170.316,158.458 169.004 C 157.703 168.368,156.088 167.433,154.869 166.926 C 152.290 165.855,152.040 165.677,151.593 164.599 C 151.382 164.089,150.991 163.734,150.526 163.631 C 148.878 163.265,141.355 157.072,141.355 156.081 C 141.355 156.014,141.058 155.604,140.693 155.171 C 140.329 154.738,139.701 153.519,139.297 152.462 C 138.706 150.916,138.401 150.473,137.739 150.199 C 136.328 149.615,134.442 145.666,134.439 143.292 C 134.439 142.833,134.161 142.414,133.614 142.048 C 131.841 140.860,131.311 138.263,130.816 128.354 C 130.438 120.791,130.438 121.950,130.811 114.938 C 131.318 105.402,131.842 102.853,133.573 101.491 C 134.174 101.018,134.403 100.427,134.898 98.065 C 135.681 94.328,136.130 93.418,137.492 92.803 C 138.412 92.389,138.668 92.075,139.156 90.762 C 140.585 86.921,147.459 79.730,150.118 79.296 C 150.902 79.168,151.294 78.914,151.633 78.313 C 152.244 77.232,153.031 76.753,156.024 75.640 C 157.665 75.030,158.965 74.332,159.753 73.639 C 161.027 72.517,162.603 72.001,166.667 71.373 C 168.629 71.070,170.401 70.423,170.401 70.011 C 170.401 68.691,174.710 67.724,182.849 67.217 C 188.149 66.886,191.737 66.350,192.976 65.704 C 194.251 65.039,202.176 65.102,203.075 65.784 C 204.212 66.648,205.890 66.943,209.656 66.943 C 221.943 66.943,228.983 67.946,230.770 69.952 C 231.368 70.623,231.873 70.811,234.200 71.227 C 239.513 72.176,240.583 72.544,242.027 73.924 C 243.106 74.955,243.774 75.314,245.722 75.908 C 248.003 76.603,249.336 77.413,250.435 78.769 C 250.712 79.111,251.117 79.391,251.334 79.391 C 251.551 79.391,251.729 79.487,251.729 79.605 C 251.729 79.722,252.302 80.438,253.004 81.196 C 255.013 83.367,255.509 84.122,256.037 85.822 C 256.588 87.592,257.115 88.198,258.929 89.151 C 259.700 89.556,260.374 90.183,260.719 90.817 C 261.348 91.971,261.417 92.008,263.988 92.549 C 269.930 93.800,277.098 92.855,279.057 90.562 C 279.788 89.707,280.606 89.134,281.754 88.673 C 283.698 87.892,283.864 87.630,284.653 84.094 C 284.975 82.649,285.479 80.921,285.773 80.255 C 286.435 78.754,286.523 74.178,285.921 72.551 C 285.116 70.374,284.094 66.941,284.094 66.415 C 284.094 66.013,283.596 65.623,282.227 64.953 C 280.669 64.190,280.259 63.838,279.749 62.829 C 279.414 62.164,279.089 61.569,279.027 61.507 C 278.068 60.549,270.266 60.060,265.132 60.638 C 260.477 61.162,257.587 60.499,255.346 58.393 C 254.290 57.401,253.089 56.708,252.425 56.708 C 251.028 56.708,247.408 55.154,246.357 54.103 C 245.168 52.914,241.662 51.760,239.142 51.729 C 237.819 51.713,235.327 50.734,233.966 49.696 C 232.321 48.441,229.307 48.000,217.704 47.315 C 213.153 47.046,210.767 46.728,208.299 46.061 C 206.641 45.613,194.003 45.510,191.286 45.922 " stroke="none" fill="#fcfbfb" fill-rule="evenodd"></path><path id="path2" d="M198.064 21.340 C 197.227 21.471,193.057 21.693,188.797 21.834 C 177.299 22.212,169.227 22.900,167.497 23.649 C 164.177 25.087,160.606 25.810,153.112 26.561 C 149.741 26.899,147.601 27.486,146.387 28.405 C 144.786 29.619,139.547 30.977,136.455 30.981 C 135.062 30.983,133.013 31.793,131.928 32.770 C 130.912 33.685,130.345 33.870,123.809 35.425 C 121.656 35.937,120.918 36.240,120.397 36.824 C 119.911 37.370,118.868 37.841,116.505 38.583 C 111.643 40.110,110.956 40.386,110.148 41.138 C 109.175 42.043,106.709 43.262,105.007 43.680 C 103.297 44.099,102.326 44.602,100.618 45.952 C 99.807 46.593,98.630 47.195,97.694 47.447 C 95.357 48.077,93.866 48.907,93.506 49.777 C 93.131 50.681,91.887 51.395,89.105 52.305 C 87.412 52.859,86.957 53.140,86.447 53.943 C 85.816 54.939,85.609 55.075,82.958 56.238 C 82.106 56.611,80.718 57.542,79.875 58.306 C 78.190 59.832,76.355 60.993,75.163 61.286 C 74.701 61.400,74.221 61.808,73.963 62.306 C 73.475 63.250,72.045 64.730,71.621 64.730 C 70.698 64.730,68.962 65.880,68.535 66.774 C 68.227 67.420,67.667 67.953,66.884 68.344 C 66.232 68.670,64.952 69.710,64.039 70.655 C 63.126 71.600,62.031 72.545,61.606 72.755 C 61.180 72.964,60.287 73.870,59.620 74.767 C 58.954 75.664,58.027 76.680,57.560 77.024 C 57.093 77.368,56.209 78.220,55.596 78.918 C 54.982 79.615,53.861 80.640,53.104 81.195 C 52.348 81.750,51.729 82.392,51.729 82.620 C 51.729 83.108,48.931 85.914,48.212 86.147 C 47.940 86.234,47.407 86.769,47.026 87.335 C 46.646 87.900,45.812 88.912,45.173 89.583 C 44.534 90.254,43.766 91.326,43.465 91.966 C 42.955 93.050,41.212 94.882,40.690 94.882 C 40.563 94.882,39.889 96.040,39.192 97.454 C 38.480 98.896,37.505 100.407,36.971 100.893 C 36.447 101.370,35.478 102.839,34.819 104.157 C 34.074 105.647,33.304 106.776,32.785 107.140 C 31.586 107.981,31.308 108.420,31.092 109.820 C 30.792 111.768,29.962 113.410,28.490 114.966 C 27.745 115.754,27.058 116.755,26.963 117.190 C 26.312 120.186,25.268 123.222,24.362 124.758 C 22.984 127.092,22.435 128.767,22.096 131.666 C 21.752 134.618,20.999 137.458,19.783 140.397 C 17.240 146.540,17.218 173.998,19.753 178.460 C 20.835 180.364,21.730 183.227,22.255 186.466 C 22.715 189.299,23.450 191.698,23.859 191.700 C 23.973 191.701,24.066 191.820,24.066 191.966 C 24.066 192.111,24.363 192.667,24.725 193.200 C 25.087 193.734,25.661 195.202,26.001 196.463 C 26.762 199.288,27.295 200.352,28.723 201.892 C 30.024 203.295,30.711 204.628,30.915 206.146 C 31.013 206.882,31.326 207.474,31.880 207.974 C 33.777 209.687,34.268 210.302,35.271 212.224 C 35.851 213.336,36.990 214.920,37.801 215.744 C 38.612 216.568,39.531 217.769,39.842 218.412 C 40.194 219.140,40.708 219.706,41.200 219.910 C 42.213 220.330,43.086 221.264,43.972 222.877 C 44.359 223.582,44.862 224.247,45.090 224.357 C 45.318 224.466,45.857 224.721,46.287 224.923 C 46.735 225.133,47.448 225.937,47.953 226.801 C 48.673 228.033,49.048 228.382,49.986 228.695 C 50.678 228.926,51.590 229.572,52.280 230.321 C 52.910 231.004,54.631 232.277,56.104 233.150 C 57.679 234.083,59.011 235.088,59.336 235.588 C 60.008 236.622,61.094 237.361,62.932 238.036 C 64.550 238.629,65.497 239.394,65.615 240.203 C 65.676 240.622,66.039 240.878,66.943 241.139 C 70.429 242.145,71.916 242.906,72.742 244.107 C 73.485 245.186,73.721 245.325,75.573 245.767 C 78.318 246.424,79.570 247.006,81.127 248.355 C 81.872 249.000,82.957 249.628,83.616 249.796 C 84.260 249.961,85.585 250.338,86.561 250.635 C 87.538 250.932,88.436 251.176,88.558 251.176 C 88.922 251.176,91.637 252.494,92.531 253.104 C 93.446 253.729,94.741 254.135,96.985 254.500 C 99.841 254.965,102.976 255.963,104.252 256.815 C 106.260 258.156,110.677 259.198,114.356 259.198 C 116.273 259.198,120.583 260.163,122.839 261.097 C 126.498 262.613,129.471 263.012,141.662 263.619 C 144.494 263.760,147.606 264.005,148.578 264.163 C 151.514 264.639,180.937 264.528,182.988 264.033 C 183.941 263.803,186.021 263.631,187.876 263.628 C 191.250 263.624,199.743 263.024,204.011 262.489 C 205.940 262.247,206.968 261.942,208.575 261.132 C 210.756 260.033,213.843 259.490,220.295 259.072 C 223.809 258.844,226.338 258.207,229.184 256.833 C 231.165 255.877,232.550 255.457,235.961 254.779 C 240.641 253.848,241.626 253.549,242.462 252.809 C 243.365 252.010,245.494 251.222,248.038 250.745 C 251.366 250.121,253.669 249.339,254.489 248.554 C 255.664 247.430,258.605 246.236,262.006 245.505 C 263.336 245.219,264.102 244.871,264.772 244.249 C 265.998 243.112,267.288 242.465,269.443 241.906 C 271.644 241.336,271.986 241.154,273.276 239.864 C 274.219 238.921,277.601 237.344,278.681 237.344 C 278.881 237.344,279.652 236.713,280.394 235.942 C 281.377 234.920,282.493 234.180,284.509 233.212 C 286.199 232.401,287.627 231.500,288.180 230.898 C 288.710 230.320,289.710 229.677,290.594 229.346 C 292.325 228.699,293.223 228.186,293.223 227.846 C 293.223 227.102,294.602 225.903,296.620 224.895 C 298.196 224.108,299.148 223.425,299.723 222.670 C 300.180 222.070,301.300 221.088,302.213 220.486 C 303.949 219.342,304.415 218.961,305.142 218.091 C 305.892 217.193,307.006 216.348,307.973 215.944 C 308.619 215.674,309.156 215.105,309.743 214.064 C 310.382 212.931,310.921 212.389,311.979 211.813 C 313.036 211.238,313.519 210.752,313.980 209.799 C 314.445 208.838,314.938 208.346,316.083 207.700 C 317.311 207.007,317.704 206.590,318.283 205.364 C 318.671 204.544,319.073 203.870,319.176 203.867 C 319.688 203.853,321.450 201.902,322.159 200.564 C 322.599 199.734,323.787 198.228,324.798 197.218 C 326.643 195.375,327.294 194.411,327.624 193.037 C 327.722 192.625,328.454 191.739,329.277 191.036 C 330.349 190.120,330.850 189.452,331.106 188.594 C 331.629 186.846,332.626 185.015,333.481 184.232 C 334.221 183.554,335.822 180.568,335.823 179.864 C 335.823 179.184,336.910 177.383,337.743 176.682 C 338.734 175.848,339.549 173.917,339.997 171.342 C 340.345 169.347,341.376 166.808,342.075 166.229 C 342.947 165.505,343.511 163.800,344.126 160.028 C 344.795 155.924,345.411 153.774,346.380 152.162 C 349.270 147.357,349.274 111.735,346.385 107.677 C 345.491 106.422,345.036 104.952,344.098 100.286 C 343.039 95.020,343.170 95.407,341.927 93.903 C 340.927 92.692,339.693 89.507,339.695 88.143 C 339.696 87.339,338.588 85.565,337.883 85.244 C 337.058 84.868,336.064 83.123,335.102 80.360 C 334.678 79.142,334.219 78.101,334.082 78.045 C 333.397 77.767,331.977 76.247,331.659 75.451 C 331.090 74.028,329.920 72.488,329.401 72.482 C 328.964 72.476,327.524 70.710,327.524 70.179 C 327.524 69.744,325.817 67.466,324.829 66.582 C 323.145 65.076,321.962 63.792,321.570 63.045 C 321.362 62.651,320.314 61.618,319.241 60.751 C 318.167 59.884,317.289 59.055,317.289 58.909 C 317.289 58.764,317.109 58.645,316.890 58.645 C 316.670 58.645,316.328 58.422,316.129 58.149 C 315.930 57.877,315.334 57.349,314.803 56.977 C 313.443 56.023,313.072 55.700,310.924 53.596 C 309.659 52.357,308.797 51.729,308.364 51.729 C 307.594 51.729,306.740 50.991,305.814 49.524 C 305.289 48.692,304.828 48.359,303.679 47.983 C 301.553 47.288,300.146 46.524,299.438 45.683 C 298.865 45.002,297.087 44.042,294.554 43.044 C 293.948 42.806,293.185 42.162,292.676 41.459 C 291.844 40.310,289.741 39.351,285.062 37.985 C 284.758 37.896,284.136 37.474,283.679 37.047 C 282.832 36.255,280.149 35.181,277.496 34.572 C 276.596 34.366,275.214 33.697,273.971 32.865 C 271.714 31.356,270.715 30.982,268.936 30.982 C 266.828 30.982,263.830 30.123,261.134 28.745 C 258.121 27.206,257.803 27.124,250.899 26.131 C 246.255 25.462,243.466 24.743,241.663 23.749 C 240.244 22.966,226.916 21.858,218.821 21.849 C 216.096 21.846,213.814 21.694,212.587 21.434 C 210.432 20.977,200.773 20.915,198.064 21.340 M211.342 42.739 C 213.243 42.964,215.795 43.150,217.012 43.151 C 218.887 43.154,219.490 43.279,220.956 43.973 C 222.953 44.917,225.485 45.485,229.599 45.910 C 236.334 46.605,237.779 46.983,240.249 48.694 C 241.354 49.460,242.864 49.991,247.303 51.178 C 249.171 51.677,249.882 52.021,250.761 52.849 C 251.718 53.750,253.873 54.772,254.816 54.772 C 255.611 54.772,258.364 56.291,258.912 57.032 C 260.432 59.088,265.404 59.148,268.880 57.153 C 270.390 56.286,270.674 56.273,272.072 57.007 C 273.394 57.702,276.602 58.644,277.659 58.647 C 279.048 58.652,281.234 59.891,282.003 61.108 C 282.394 61.728,283.190 62.474,283.783 62.776 C 285.151 63.474,286.190 64.710,286.414 65.907 C 286.513 66.432,287.134 67.482,287.822 68.289 C 290.598 71.542,290.706 80.756,288.004 83.886 C 287.060 84.980,286.309 86.465,286.303 87.249 C 286.294 88.334,285.089 90.018,283.810 90.733 C 283.130 91.113,282.137 91.872,281.604 92.418 C 277.653 96.471,260.183 96.394,258.378 92.315 C 258.186 91.881,257.715 91.406,257.332 91.261 C 255.922 90.725,254.963 89.784,254.283 88.268 C 253.901 87.418,253.235 86.435,252.803 86.084 C 252.371 85.734,251.760 84.864,251.445 84.151 C 250.755 82.593,249.981 81.721,248.686 81.046 C 248.154 80.768,247.159 80.030,246.476 79.406 C 245.764 78.755,244.761 78.152,244.125 77.992 C 240.831 77.164,237.904 75.777,237.900 75.042 C 237.896 74.422,236.416 73.938,232.227 73.185 C 227.300 72.300,224.309 71.655,223.928 71.397 C 221.657 69.854,211.475 68.825,197.925 68.771 C 187.217 68.728,182.454 69.309,178.008 71.199 C 176.219 71.959,174.897 72.264,171.231 72.761 C 166.933 73.343,164.715 74.069,163.145 75.409 C 162.013 76.376,161.113 76.813,158.557 77.639 C 155.750 78.547,155.248 78.807,154.279 79.859 C 153.588 80.608,152.758 81.175,152.040 81.389 C 151.027 81.689,150.349 82.251,148.133 84.626 C 147.981 84.789,147.140 85.490,146.266 86.183 C 145.391 86.877,144.675 87.566,144.675 87.716 C 144.675 87.865,143.928 88.725,143.015 89.627 C 141.770 90.857,141.355 91.460,141.355 92.043 C 141.355 92.943,140.019 94.701,138.892 95.284 C 138.211 95.636,138.040 96.064,137.150 99.635 C 136.607 101.814,135.663 104.716,135.053 106.086 C 133.177 110.291,133.015 111.518,133.016 121.438 C 133.018 132.311,133.293 134.291,135.398 138.589 C 135.882 139.578,136.692 141.906,137.198 143.762 C 138.114 147.121,138.123 147.139,139.349 147.911 C 140.676 148.747,141.355 149.758,141.355 150.896 C 141.355 151.394,141.838 152.104,142.946 153.236 C 143.821 154.129,144.673 155.027,144.839 155.231 C 145.005 155.435,145.876 156.294,146.775 157.139 C 147.674 157.985,148.748 159.125,149.161 159.672 C 149.660 160.332,150.610 160.998,151.980 161.649 C 153.160 162.209,154.192 162.900,154.384 163.259 C 154.900 164.224,155.199 164.424,156.907 164.954 C 159.555 165.775,161.446 166.725,162.137 167.582 C 163.069 168.737,163.658 168.969,166.464 169.287 C 167.831 169.442,170.374 169.812,172.116 170.110 C 174.917 170.589,176.250 170.987,180.083 172.487 C 180.841 172.784,183.354 172.869,191.655 172.879 L 202.259 172.891 204.168 172.053 C 206.061 171.222,213.580 169.304,214.970 169.298 C 215.792 169.294,217.151 168.340,217.151 167.766 C 217.151 167.556,217.662 166.974,218.286 166.472 C 220.571 164.636,220.648 163.519,218.649 161.208 C 216.458 158.675,216.252 158.482,215.129 157.909 C 214.525 157.601,213.472 156.799,212.790 156.126 C 211.234 154.592,210.889 154.511,207.471 154.883 C 203.715 155.292,193.502 155.281,192.253 154.866 C 191.666 154.672,187.969 154.471,182.849 154.355 C 169.908 154.061,167.344 153.660,164.928 151.553 C 164.428 151.117,163.862 150.761,163.669 150.761 C 160.473 150.761,153.439 144.042,151.842 139.464 C 151.559 138.652,151.009 137.737,150.620 137.431 C 150.231 137.125,149.575 136.234,149.162 135.450 L 148.411 134.025 148.319 124.291 C 148.233 115.051,148.258 114.448,148.819 112.396 C 149.401 110.270,150.562 107.884,151.015 107.884 C 151.295 107.884,152.178 105.850,152.875 103.598 C 153.210 102.518,153.728 101.599,154.363 100.964 C 154.898 100.428,155.679 99.404,156.098 98.690 C 156.516 97.975,157.303 97.052,157.846 96.638 C 158.389 96.224,159.416 95.314,160.128 94.617 C 161.098 93.667,161.860 93.216,163.163 92.822 C 164.253 92.491,165.334 91.916,166.061 91.277 C 167.703 89.835,169.124 89.190,171.508 88.806 C 175.610 88.146,179.135 87.363,180.221 86.871 C 181.299 86.383,182.281 86.228,190.041 85.320 C 194.545 84.794,216.013 84.868,217.704 85.417 C 218.237 85.589,219.870 85.850,221.333 85.997 C 223.251 86.190,224.372 86.459,225.344 86.962 C 226.181 87.395,227.958 87.881,230.014 88.240 C 231.840 88.558,234.079 88.950,234.990 89.111 C 236.909 89.450,237.792 89.861,239.135 91.040 C 240.090 91.879,244.070 93.223,245.599 93.223 C 246.515 93.223,247.823 93.897,248.991 94.970 C 250.208 96.088,251.692 96.981,253.526 97.698 C 254.287 97.996,255.346 98.662,255.878 99.178 C 256.411 99.693,257.718 100.546,258.783 101.071 C 259.848 101.597,261.369 102.630,262.163 103.367 C 262.957 104.104,264.304 105.204,265.158 105.811 C 266.882 107.038,272.476 112.388,272.476 112.809 C 272.476 112.957,273.331 113.768,274.376 114.612 C 275.819 115.779,276.593 116.689,277.598 118.404 C 278.326 119.645,279.452 121.199,280.102 121.858 C 280.867 122.634,281.500 123.653,281.902 124.755 C 282.571 126.589,283.376 127.801,283.925 127.801 C 284.711 127.801,286.296 131.776,286.304 133.768 C 286.308 134.860,287.080 137.159,287.722 137.990 C 289.704 140.555,290.201 144.793,290.371 160.581 C 290.558 177.906,290.187 181.969,288.139 185.012 C 287.078 186.589,286.309 188.630,286.304 189.883 C 286.295 192.162,285.160 194.801,283.547 196.293 C 282.757 197.024,282.328 197.736,282.003 198.852 C 281.381 200.991,280.669 202.300,279.478 203.491 C 278.920 204.049,277.956 205.441,277.336 206.584 C 276.547 208.040,275.941 208.804,275.308 209.139 C 274.211 209.719,273.467 210.631,272.729 212.298 C 272.322 213.219,271.881 213.706,271.085 214.112 C 270.465 214.428,269.802 215.052,269.544 215.563 C 268.841 216.949,268.332 217.404,267.119 217.731 C 265.967 218.041,264.744 218.975,264.735 219.550 C 264.726 220.194,263.275 221.584,261.882 222.284 C 261.099 222.677,259.864 223.555,259.137 224.234 C 257.934 225.360,254.299 227.386,253.484 227.386 C 253.299 227.386,252.798 227.878,252.369 228.479 C 251.941 229.080,251.342 229.695,251.037 229.847 C 249.872 230.428,246.824 231.535,246.389 231.535 C 246.138 231.535,245.544 231.963,245.069 232.485 C 243.952 233.712,243.089 234.103,239.557 234.981 C 235.976 235.872,235.245 236.156,234.331 237.016 C 233.186 238.093,232.295 238.343,226.296 239.273 C 220.643 240.149,220.119 240.280,217.012 241.585 C 213.347 243.124,183.764 243.992,178.423 242.716 C 177.434 242.480,175.608 242.179,174.364 242.048 C 172.863 241.889,171.455 241.524,170.175 240.963 C 168.587 240.266,167.186 239.970,162.202 239.279 C 158.876 238.818,155.748 238.375,155.250 238.294 C 154.752 238.213,153.507 237.705,152.483 237.165 C 150.007 235.858,147.988 235.170,145.648 234.837 C 142.702 234.417,141.809 234.062,140.396 232.746 C 139.681 232.080,138.824 231.535,138.491 231.535 C 136.297 231.535,131.607 229.563,130.617 228.224 C 130.304 227.801,129.698 227.369,129.270 227.265 C 126.883 226.684,123.851 225.276,122.654 224.192 C 121.944 223.549,120.851 222.855,120.225 222.648 C 118.880 222.204,116.027 220.356,115.809 219.786 C 115.323 218.520,113.731 218.070,108.990 217.860 C 103.950 217.636,102.363 217.210,101.138 215.755 C 100.782 215.332,99.868 214.670,99.106 214.284 C 98.345 213.898,97.363 213.187,96.924 212.704 C 96.074 211.768,95.805 211.519,94.404 210.373 C 93.678 209.779,93.348 209.115,92.643 206.830 C 92.144 205.213,91.563 203.869,91.275 203.668 C 89.692 202.559,89.551 194.498,91.086 192.854 C 91.892 191.990,92.850 189.897,93.105 188.439 C 93.543 185.940,96.252 183.311,99.753 181.990 C 100.529 181.696,101.557 181.026,102.035 180.500 C 104.596 177.685,114.675 177.553,117.856 180.293 C 118.341 180.710,119.812 181.611,121.125 182.296 C 122.830 183.185,123.634 183.778,123.936 184.371 C 124.732 185.932,125.357 186.694,126.292 187.246 C 127.411 187.906,127.969 189.107,128.538 192.080 C 129.403 196.597,129.930 197.289,134.282 199.630 C 135.792 200.443,137.349 201.465,137.740 201.902 C 138.411 202.652,141.454 203.869,142.675 203.875 C 143.464 203.880,145.872 205.131,146.588 205.908 C 147.422 206.814,149.682 207.676,152.552 208.182 C 154.847 208.587,156.224 209.110,157.400 210.024 C 158.838 211.143,159.177 211.222,168.880 212.714 C 171.888 213.177,172.838 213.449,174.689 214.379 C 176.388 215.233,177.224 215.491,178.285 215.492 C 179.046 215.493,180.788 215.677,182.158 215.902 C 185.650 216.476,201.541 216.478,205.256 215.906 C 206.701 215.683,208.498 215.499,209.249 215.496 C 210.255 215.492,211.094 215.243,212.441 214.545 C 214.637 213.409,216.641 212.874,220.332 212.436 C 223.784 212.027,227.582 210.941,228.492 210.103 C 229.452 209.220,230.975 208.516,233.887 207.612 C 235.899 206.987,236.562 206.638,237.344 205.794 C 238.345 204.714,239.743 203.873,240.538 203.873 C 241.204 203.873,242.533 202.885,244.260 201.105 C 245.097 200.243,246.336 199.175,247.013 198.732 C 248.488 197.766,249.051 197.235,250.437 195.505 C 251.015 194.783,251.929 193.725,252.467 193.154 C 253.006 192.583,253.952 191.245,254.570 190.180 C 255.188 189.115,256.357 187.593,257.169 186.797 C 258.407 185.584,258.645 185.192,258.645 184.362 C 258.645 182.256,260.318 177.306,261.374 176.287 C 264.409 173.359,264.122 151.754,260.985 147.028 C 259.987 145.525,259.366 143.810,258.472 140.091 C 258.130 138.665,257.882 138.255,256.838 137.382 C 256.101 136.766,255.319 135.745,254.890 134.838 C 254.463 133.935,253.680 132.911,252.951 132.302 C 252.279 131.740,251.729 131.120,251.729 130.924 C 251.729 130.277,249.678 128.285,248.483 127.773 C 247.796 127.479,247.087 126.906,246.776 126.394 C 246.198 125.444,245.219 124.693,243.711 124.041 C 242.544 123.538,241.578 122.670,241.045 121.646 C 240.770 121.116,240.434 120.885,239.939 120.885 C 237.936 120.885,231.882 118.425,230.981 117.245 C 230.484 116.593,220.967 115.072,211.362 114.109 C 210.379 114.011,209.081 113.662,208.457 113.328 C 206.915 112.502,186.071 112.371,185.160 113.181 C 184.878 113.432,183.838 113.972,182.849 114.381 C 179.832 115.629,178.036 116.932,177.544 118.231 C 177.308 118.854,176.911 119.826,176.663 120.392 C 176.215 121.410,176.218 121.428,177.004 122.328 C 177.440 122.828,178.123 123.882,178.521 124.672 C 180.175 127.950,180.906 128.077,198.040 128.077 L 210.701 128.077 212.935 129.184 C 214.492 129.955,215.528 130.290,216.354 130.290 C 221.741 130.290,230.258 132.246,231.000 133.653 C 231.438 134.484,231.785 134.707,232.650 134.712 C 234.710 134.725,237.213 136.487,238.907 139.117 C 239.797 140.499,240.670 141.630,240.847 141.631 C 241.464 141.633,242.905 143.997,243.462 145.920 C 244.108 148.149,244.672 149.662,245.369 151.037 C 247.849 155.933,247.781 166.837,245.234 172.891 C 245.010 173.423,244.448 175.342,243.986 177.154 C 243.027 180.916,242.265 182.479,241.079 183.120 C 240.484 183.441,239.915 184.242,239.073 185.941 C 238.153 187.799,237.715 188.390,237.056 188.663 C 236.593 188.855,235.705 189.547,235.082 190.200 C 234.459 190.854,233.562 191.542,233.088 191.728 C 231.139 192.496,228.621 193.731,228.359 194.047 C 227.072 195.595,224.367 196.625,221.035 196.836 C 217.152 197.082,215.206 197.516,212.888 198.651 C 210.906 199.623,210.491 199.724,208.462 199.733 C 207.231 199.739,205.477 199.923,204.564 200.144 C 202.145 200.728,185.030 200.724,182.849 200.138 C 182.012 199.914,180.270 199.726,178.976 199.720 C 176.816 199.712,176.479 199.631,174.827 198.731 C 172.945 197.706,169.937 196.958,167.680 196.955 C 163.891 196.951,158.848 195.749,157.516 194.534 C 156.404 193.520,155.816 193.278,151.971 192.250 C 150.041 191.734,148.323 191.097,147.805 190.707 C 147.321 190.341,146.792 190.041,146.630 190.041 C 146.468 190.041,146.335 189.934,146.335 189.803 C 146.335 189.573,142.170 187.552,141.696 187.552 C 141.568 187.552,140.824 186.889,140.045 186.080 C 139.081 185.080,138.244 184.493,137.432 184.251 C 135.538 183.685,134.235 182.920,133.122 181.719 C 132.554 181.106,131.252 179.991,130.230 179.240 C 129.207 178.490,128.149 177.534,127.878 177.116 C 127.607 176.699,126.952 175.982,126.421 175.523 C 122.756 172.354,119.218 168.332,118.120 166.083 C 117.496 164.807,116.899 163.760,116.792 163.758 C 115.827 163.736,114.093 161.174,113.799 159.335 C 113.665 158.494,113.242 157.747,112.281 156.648 C 110.955 155.133,110.683 154.561,109.554 150.916 C 109.175 149.693,108.616 148.616,108.014 147.949 C 107.494 147.373,107.006 146.619,106.929 146.273 C 106.449 144.093,105.948 141.155,105.689 139.004 C 105.525 137.635,105.206 135.830,104.981 134.993 C 104.755 134.156,104.569 132.770,104.568 131.912 C 104.565 130.735,104.345 129.888,103.670 128.454 C 102.172 125.278,102.312 118.695,103.957 114.897 C 104.409 113.854,104.863 112.254,104.966 111.342 C 105.991 102.272,106.765 98.550,107.897 97.261 C 108.686 96.363,109.299 94.716,110.219 91.031 C 110.633 89.375,112.332 86.584,112.926 86.584 C 113.169 86.584,113.255 86.394,114.418 83.308 C 115.010 81.736,115.473 81.017,116.465 80.127 C 117.246 79.426,117.931 78.490,118.216 77.732 C 118.475 77.047,119.336 75.780,120.131 74.916 C 120.926 74.052,122.199 72.452,122.960 71.360 C 123.721 70.269,125.059 68.810,125.934 68.119 C 126.808 67.427,127.524 66.758,127.524 66.632 C 127.524 66.230,131.101 63.435,132.731 62.563 C 133.762 62.012,134.422 61.446,134.652 60.917 C 135.049 60.003,137.290 58.645,138.398 58.645 C 139.198 58.645,140.501 57.649,141.055 56.615 C 141.464 55.850,143.198 54.997,145.370 54.492 C 147.548 53.985,148.098 53.710,148.683 52.839 C 149.312 51.904,150.971 51.222,154.772 50.337 C 156.141 50.019,157.697 49.521,158.230 49.230 C 162.410 46.953,163.977 46.529,171.508 45.635 C 177.206 44.959,177.247 44.950,179.391 43.938 C 180.788 43.278,181.424 43.150,183.402 43.132 C 184.696 43.120,186.625 42.945,187.690 42.743 C 190.547 42.202,206.794 42.199,211.342 42.739 " stroke="none" fill="#f48424" fill-rule="evenodd"></path></g></svg>