<svg className="h6 w-6" xmlns="http://www.w3.org/2000/svg" fill="none" viewBox="0 0 24 24" stroke="currentColor">
                  <path strokeLinecap="round" strokeLinejoin="round" strokeWidth="2" d="M12 2C6.477 2 2 6.477 2 12c0 4.418 2.865 8.166 6.839 9.489.5.09.682-.218.682-.484 0-.237-.009-.868-.014-1.704-2.782.608-3.37-1.341-3.37-1.341-.454-1.156-1.11-1.462-1.11-1.462-.908-.62.069-.608.069-.608 1.004.071 1.532 1.032 1.532 1.032 .892 1.531 2.342 1.089 2.912.833.091-.647.349-1.088.635-1.338-2.22-.253-4.555-1.112-4.555-4.943 0-1.091.39-1.984 1.03-2.682-.103-.253-.448-1.27.098-2.646 0 0 .84-.27 2.75 1.026A9.564 9.564 0 0112 7.07c.85.004 1.705.115 2.504.337 1.909-1.296 2.747-1.026 2.747-1.026 .548 1.376.202 2.394.1 2.646.64.699 1.027 1.592 1.027 2.682 0 3.841-2.337 4.687-4.564 4.934.359.31.678.924.678 1.861 0 1.344-.012 2.425-.012 2.759 0 .269.18.578.688.481C19.137 20.164 22 16.418 22 12c0-5.523-4.477-10-10-10z" />
                </svg>