<svg xmlns="http://www.w3.org/2000/svg" fill="none" viewBox="0 0 566 335" role="img" aria-label="Looking for a job?" class=""><defs><filter id="ipl-illustrations-hero-:r7:-25" x="0%" y="0%"><feTurbulence baseFrequency="2.5" numOctaves="4" result="noise" seed="14"></feTurbulence><feComponentTransfer in="noise" result="opacity"><feFuncA slope="0.6" type="linear"></feFuncA></feComponentTransfer><feBlend in="opacity" in2="SourceGraphic" mode="overlay" result="blend"></feBlend></filter><filter id="ipl-illustrations-hero-:r7:-24" width="47.012" height="171.159" x="87.212" y="136.46" color-interpolation-filters="sRGB" filterUnits="userSpaceOnUse"><feFlood flood-opacity="0" result="BackgroundImageFix"></feFlood><feColorMatrix in="SourceAlpha" result="hardAlpha" values="0 0 0 0 0 0 0 0 0 0 0 0 0 0 0 0 0 0 127 0"></feColorMatrix><feOffset dx="-1" dy="1"></feOffset><feGaussianBlur stdDeviation="0.5"></feGaussianBlur><feColorMatrix values="0 0 0 0 0 0 0 0 0 0 0 0 0 0 0 0 0 0 0.3 0"></feColorMatrix><feBlend in2="BackgroundImageFix" result="effect1_dropShadow_295_1630"></feBlend><feBlend in="SourceGraphic" in2="effect1_dropShadow_295_1630" result="shape"></feBlend><feColorMatrix in="SourceAlpha" result="hardAlpha" values="0 0 0 0 0 0 0 0 0 0 0 0 0 0 0 0 0 0 127 0"></feColorMatrix><feOffset dx="-1.5" dy="1"></feOffset><feGaussianBlur stdDeviation="0.75"></feGaussianBlur><feComposite in2="hardAlpha" k2="-1" k3="1" operator="arithmetic"></feComposite><feColorMatrix values="0 0 0 0 1 0 0 0 0 1 0 0 0 0 1 0 0 0 0.3 0"></feColorMatrix><feBlend in2="shape" mode="soft-light" result="effect2_innerShadow_295_1630"></feBlend></filter><filter id="ipl-illustrations-hero-:r7:-23" width="123.623" height="111.736" x="33.251" y="100.471" color-interpolation-filters="sRGB" filterUnits="userSpaceOnUse"><feFlood flood-opacity="0" result="BackgroundImageFix"></feFlood><feColorMatrix in="SourceAlpha" result="hardAlpha" values="0 0 0 0 0 0 0 0 0 0 0 0 0 0 0 0 0 0 127 0"></feColorMatrix><feOffset dx="-1" dy="1"></feOffset><feGaussianBlur stdDeviation="0.5"></feGaussianBlur><feColorMatrix values="0 0 0 0 0 0 0 0 0 0 0 0 0 0 0 0 0 0 0.3 0"></feColorMatrix><feBlend in2="BackgroundImageFix" result="effect1_dropShadow_295_1630"></feBlend><feBlend in="SourceGraphic" in2="effect1_dropShadow_295_1630" result="shape"></feBlend><feColorMatrix in="SourceAlpha" result="hardAlpha" values="0 0 0 0 0 0 0 0 0 0 0 0 0 0 0 0 0 0 127 0"></feColorMatrix><feOffset dx="-1.5" dy="1"></feOffset><feGaussianBlur stdDeviation="0.75"></feGaussianBlur><feComposite in2="hardAlpha" k2="-1" k3="1" operator="arithmetic"></feComposite><feColorMatrix values="0 0 0 0 1 0 0 0 0 1 0 0 0 0 1 0 0 0 0.3 0"></feColorMatrix><feBlend in2="shape" mode="soft-light" result="effect2_innerShadow_295_1630"></feBlend></filter><filter id="ipl-illustrations-hero-:r7:-22" width="102.283" height="55.874" x="38.467" y="272.093" color-interpolation-filters="sRGB" filterUnits="userSpaceOnUse"><feFlood flood-opacity="0" result="BackgroundImageFix"></feFlood><feColorMatrix in="SourceAlpha" result="hardAlpha" values="0 0 0 0 0 0 0 0 0 0 0 0 0 0 0 0 0 0 127 0"></feColorMatrix><feOffset dx="-1" dy="1"></feOffset><feGaussianBlur stdDeviation="0.5"></feGaussianBlur><feColorMatrix values="0 0 0 0 0 0 0 0 0 0 0 0 0 0 0 0 0 0 0.3 0"></feColorMatrix><feBlend in2="BackgroundImageFix" result="effect1_dropShadow_295_1630"></feBlend><feBlend in="SourceGraphic" in2="effect1_dropShadow_295_1630" result="shape"></feBlend><feColorMatrix in="SourceAlpha" result="hardAlpha" values="0 0 0 0 0 0 0 0 0 0 0 0 0 0 0 0 0 0 127 0"></feColorMatrix><feOffset dx="-1.5" dy="1"></feOffset><feGaussianBlur stdDeviation="0.75"></feGaussianBlur><feComposite in2="hardAlpha" k2="-1" k3="1" operator="arithmetic"></feComposite><feColorMatrix values="0 0 0 0 1 0 0 0 0 1 0 0 0 0 1 0 0 0 0.3 0"></feColorMatrix><feBlend in2="shape" mode="soft-light" result="effect2_innerShadow_295_1630"></feBlend></filter><filter id="ipl-illustrations-hero-:r7:-21" width="90.481" height="172.768" x="272.426" y="39.034" color-interpolation-filters="sRGB" filterUnits="userSpaceOnUse"><feFlood flood-opacity="0" result="BackgroundImageFix"></feFlood><feColorMatrix in="SourceAlpha" result="hardAlpha" values="0 0 0 0 0 0 0 0 0 0 0 0 0 0 0 0 0 0 127 0"></feColorMatrix><feOffset dx="-1" dy="1"></feOffset><feGaussianBlur stdDeviation="1.5"></feGaussianBlur><feColorMatrix values="0 0 0 0 0 0 0 0 0 0 0 0 0 0 0 0 0 0 0.3 0"></feColorMatrix><feBlend in2="BackgroundImageFix" result="effect1_dropShadow_295_1630"></feBlend><feBlend in="SourceGraphic" in2="effect1_dropShadow_295_1630" result="shape"></feBlend><feColorMatrix in="SourceAlpha" result="hardAlpha" values="0 0 0 0 0 0 0 0 0 0 0 0 0 0 0 0 0 0 127 0"></feColorMatrix><feOffset dx="-1.5" dy="1"></feOffset><feGaussianBlur stdDeviation="0.75"></feGaussianBlur><feComposite in2="hardAlpha" k2="-1" k3="1" operator="arithmetic"></feComposite><feColorMatrix values="0 0 0 0 1 0 0 0 0 1 0 0 0 0 1 0 0 0 0.3 0"></feColorMatrix><feBlend in2="shape" mode="soft-light" result="effect2_innerShadow_295_1630"></feBlend></filter><filter id="ipl-illustrations-hero-:r7:-20" width="295.492" height="165.588" x="168.993" y="173.297" color-interpolation-filters="sRGB" filterUnits="userSpaceOnUse"><feFlood flood-opacity="0" result="BackgroundImageFix"></feFlood><feColorMatrix in="SourceAlpha" result="hardAlpha" values="0 0 0 0 0 0 0 0 0 0 0 0 0 0 0 0 0 0 127 0"></feColorMatrix><feOffset dx="-1" dy="1"></feOffset><feGaussianBlur stdDeviation="1.5"></feGaussianBlur><feColorMatrix values="0 0 0 0 0 0 0 0 0 0 0 0 0 0 0 0 0 0 0.3 0"></feColorMatrix><feBlend in2="BackgroundImageFix" result="effect1_dropShadow_295_1630"></feBlend><feBlend in="SourceGraphic" in2="effect1_dropShadow_295_1630" result="shape"></feBlend><feColorMatrix in="SourceAlpha" result="hardAlpha" values="0 0 0 0 0 0 0 0 0 0 0 0 0 0 0 0 0 0 127 0"></feColorMatrix><feOffset dx="-1.5" dy="1"></feOffset><feGaussianBlur stdDeviation="0.75"></feGaussianBlur><feComposite in2="hardAlpha" k2="-1" k3="1" operator="arithmetic"></feComposite><feColorMatrix values="0 0 0 0 1 0 0 0 0 1 0 0 0 0 1 0 0 0 0.3 0"></feColorMatrix><feBlend in2="shape" mode="soft-light" result="effect2_innerShadow_295_1630"></feBlend></filter><filter id="ipl-illustrations-hero-:r7:-19" width="199.483" height="183.468" x="169.053" y="153.417" color-interpolation-filters="sRGB" filterUnits="userSpaceOnUse"><feFlood flood-opacity="0" result="BackgroundImageFix"></feFlood><feColorMatrix in="SourceAlpha" result="hardAlpha" values="0 0 0 0 0 0 0 0 0 0 0 0 0 0 0 0 0 0 127 0"></feColorMatrix><feOffset dx="-1" dy="1"></feOffset><feGaussianBlur stdDeviation="0.5"></feGaussianBlur><feColorMatrix values="0 0 0 0 0 0 0 0 0 0 0 0 0 0 0 0 0 0 0.3 0"></feColorMatrix><feBlend in2="BackgroundImageFix" result="effect1_dropShadow_295_1630"></feBlend><feBlend in="SourceGraphic" in2="effect1_dropShadow_295_1630" result="shape"></feBlend><feColorMatrix in="SourceAlpha" result="hardAlpha" values="0 0 0 0 0 0 0 0 0 0 0 0 0 0 0 0 0 0 127 0"></feColorMatrix><feOffset dx="-1.5" dy="1"></feOffset><feGaussianBlur stdDeviation="0.75"></feGaussianBlur><feComposite in2="hardAlpha" k2="-1" k3="1" operator="arithmetic"></feComposite><feColorMatrix values="0 0 0 0 1 0 0 0 0 1 0 0 0 0 1 0 0 0 0.3 0"></feColorMatrix><feBlend in2="shape" mode="soft-light" result="effect2_innerShadow_295_1630"></feBlend></filter><filter id="ipl-illustrations-hero-:r7:-18" width="114.907" height="138.584" x="229.188" y="46.024" color-interpolation-filters="sRGB" filterUnits="userSpaceOnUse"><feFlood flood-opacity="0" result="BackgroundImageFix"></feFlood><feColorMatrix in="SourceAlpha" result="hardAlpha" values="0 0 0 0 0 0 0 0 0 0 0 0 0 0 0 0 0 0 127 0"></feColorMatrix><feOffset dx="-2" dy="2"></feOffset><feGaussianBlur stdDeviation="1.5"></feGaussianBlur><feColorMatrix values="0 0 0 0 0 0 0 0 0 0 0 0 0 0 0 0 0 0 0.3 0"></feColorMatrix><feBlend in2="BackgroundImageFix" result="effect1_dropShadow_295_1630"></feBlend><feBlend in="SourceGraphic" in2="effect1_dropShadow_295_1630" result="shape"></feBlend><feColorMatrix in="SourceAlpha" result="hardAlpha" values="0 0 0 0 0 0 0 0 0 0 0 0 0 0 0 0 0 0 127 0"></feColorMatrix><feOffset dx="-1.5" dy="1"></feOffset><feGaussianBlur stdDeviation="0.75"></feGaussianBlur><feComposite in2="hardAlpha" k2="-1" k3="1" operator="arithmetic"></feComposite><feColorMatrix values="0 0 0 0 1 0 0 0 0 1 0 0 0 0 1 0 0 0 0.3 0"></feColorMatrix><feBlend in2="shape" mode="soft-light" result="effect2_innerShadow_295_1630"></feBlend></filter><filter id="ipl-illustrations-hero-:r7:-17" width="68.685" height="143.889" x="75.194" y="192.997" color-interpolation-filters="sRGB" filterUnits="userSpaceOnUse"><feFlood flood-opacity="0" result="BackgroundImageFix"></feFlood><feColorMatrix in="SourceAlpha" result="hardAlpha" values="0 0 0 0 0 0 0 0 0 0 0 0 0 0 0 0 0 0 127 0"></feColorMatrix><feOffset dx="-1" dy="1"></feOffset><feGaussianBlur stdDeviation="0.5"></feGaussianBlur><feColorMatrix values="0 0 0 0 0 0 0 0 0 0 0 0 0 0 0 0 0 0 0.3 0"></feColorMatrix><feBlend in2="BackgroundImageFix" result="effect1_dropShadow_295_1630"></feBlend><feBlend in="SourceGraphic" in2="effect1_dropShadow_295_1630" result="shape"></feBlend><feColorMatrix in="SourceAlpha" result="hardAlpha" values="0 0 0 0 0 0 0 0 0 0 0 0 0 0 0 0 0 0 127 0"></feColorMatrix><feOffset dx="-1.5" dy="1"></feOffset><feGaussianBlur stdDeviation="0.75"></feGaussianBlur><feComposite in2="hardAlpha" k2="-1" k3="1" operator="arithmetic"></feComposite><feColorMatrix values="0 0 0 0 1 0 0 0 0 1 0 0 0 0 1 0 0 0 0.3 0"></feColorMatrix><feBlend in2="shape" mode="soft-light" result="effect2_innerShadow_295_1630"></feBlend></filter><filter id="ipl-illustrations-hero-:r7:-16" width="88.298" height="33.205" x="53.26" y="303.681" color-interpolation-filters="sRGB" filterUnits="userSpaceOnUse"><feFlood flood-opacity="0" result="BackgroundImageFix"></feFlood><feColorMatrix in="SourceAlpha" result="hardAlpha" values="0 0 0 0 0 0 0 0 0 0 0 0 0 0 0 0 0 0 127 0"></feColorMatrix><feOffset dx="-1" dy="1"></feOffset><feGaussianBlur stdDeviation="0.5"></feGaussianBlur><feColorMatrix values="0 0 0 0 0 0 0 0 0 0 0 0 0 0 0 0 0 0 0.3 0"></feColorMatrix><feBlend in2="BackgroundImageFix" result="effect1_dropShadow_295_1630"></feBlend><feBlend in="SourceGraphic" in2="effect1_dropShadow_295_1630" result="shape"></feBlend><feColorMatrix in="SourceAlpha" result="hardAlpha" values="0 0 0 0 0 0 0 0 0 0 0 0 0 0 0 0 0 0 127 0"></feColorMatrix><feOffset dx="-1.5" dy="1"></feOffset><feGaussianBlur stdDeviation="0.75"></feGaussianBlur><feComposite in2="hardAlpha" k2="-1" k3="1" operator="arithmetic"></feComposite><feColorMatrix values="0 0 0 0 1 0 0 0 0 1 0 0 0 0 1 0 0 0 0.3 0"></feColorMatrix><feBlend in2="shape" mode="soft-light" result="effect2_innerShadow_295_1630"></feBlend></filter><filter id="ipl-illustrations-hero-:r7:-15" width="41.196" height="24.717" x="272.426" y="253.312" color-interpolation-filters="sRGB" filterUnits="userSpaceOnUse"><feFlood flood-opacity="0" result="BackgroundImageFix"></feFlood><feColorMatrix in="SourceAlpha" result="hardAlpha" values="0 0 0 0 0 0 0 0 0 0 0 0 0 0 0 0 0 0 127 0"></feColorMatrix><feOffset dx="-1" dy="1"></feOffset><feGaussianBlur stdDeviation="1.5"></feGaussianBlur><feColorMatrix values="0 0 0 0 0 0 0 0 0 0 0 0 0 0 0 0 0 0 0.3 0"></feColorMatrix><feBlend in2="BackgroundImageFix" result="effect1_dropShadow_295_1630"></feBlend><feBlend in="SourceGraphic" in2="effect1_dropShadow_295_1630" result="shape"></feBlend><feColorMatrix in="SourceAlpha" result="hardAlpha" values="0 0 0 0 0 0 0 0 0 0 0 0 0 0 0 0 0 0 127 0"></feColorMatrix><feOffset dx="-1.5" dy="1"></feOffset><feGaussianBlur stdDeviation="0.75"></feGaussianBlur><feComposite in2="hardAlpha" k2="-1" k3="1" operator="arithmetic"></feComposite><feColorMatrix values="0 0 0 0 1 0 0 0 0 1 0 0 0 0 1 0 0 0 0.3 0"></feColorMatrix><feBlend in2="shape" mode="soft-light" result="effect2_innerShadow_295_1630"></feBlend></filter><filter id="ipl-illustrations-hero-:r7:-14" width="58.502" height="139.798" x="115.048" y="200.087" color-interpolation-filters="sRGB" filterUnits="userSpaceOnUse"><feFlood flood-opacity="0" result="BackgroundImageFix"></feFlood><feColorMatrix in="SourceAlpha" result="hardAlpha" values="0 0 0 0 0 0 0 0 0 0 0 0 0 0 0 0 0 0 127 0"></feColorMatrix><feOffset dx="-2" dy="2"></feOffset><feGaussianBlur stdDeviation="1.5"></feGaussianBlur><feColorMatrix values="0 0 0 0 0 0 0 0 0 0 0 0 0 0 0 0 0 0 0.3 0"></feColorMatrix><feBlend in2="BackgroundImageFix" result="effect1_dropShadow_295_1630"></feBlend><feBlend in="SourceGraphic" in2="effect1_dropShadow_295_1630" result="shape"></feBlend><feColorMatrix in="SourceAlpha" result="hardAlpha" values="0 0 0 0 0 0 0 0 0 0 0 0 0 0 0 0 0 0 127 0"></feColorMatrix><feOffset dx="-1.5" dy="1"></feOffset><feGaussianBlur stdDeviation="0.75"></feGaussianBlur><feComposite in2="hardAlpha" k2="-1" k3="1" operator="arithmetic"></feComposite><feColorMatrix values="0 0 0 0 1 0 0 0 0 1 0 0 0 0 1 0 0 0 0.3 0"></feColorMatrix><feBlend in2="shape" mode="soft-light" result="effect2_innerShadow_295_1630"></feBlend></filter><filter id="ipl-illustrations-hero-:r7:-13" width="182.492" height="290.299" x="153.448" y="17.268" color-interpolation-filters="sRGB" filterUnits="userSpaceOnUse"><feFlood flood-opacity="0" result="BackgroundImageFix"></feFlood><feColorMatrix in="SourceAlpha" result="hardAlpha" values="0 0 0 0 0 0 0 0 0 0 0 0 0 0 0 0 0 0 127 0"></feColorMatrix><feOffset dx="1" dy="1"></feOffset><feGaussianBlur stdDeviation="0.5"></feGaussianBlur><feColorMatrix values="0 0 0 0 0 0 0 0 0 0 0 0 0 0 0 0 0 0 0.3 0"></feColorMatrix><feBlend in2="BackgroundImageFix" result="effect1_dropShadow_295_1630"></feBlend><feBlend in="SourceGraphic" in2="effect1_dropShadow_295_1630" result="shape"></feBlend><feColorMatrix in="SourceAlpha" result="hardAlpha" values="0 0 0 0 0 0 0 0 0 0 0 0 0 0 0 0 0 0 127 0"></feColorMatrix><feOffset dx="-1.5" dy="1"></feOffset><feGaussianBlur stdDeviation="0.75"></feGaussianBlur><feComposite in2="hardAlpha" k2="-1" k3="1" operator="arithmetic"></feComposite><feColorMatrix values="0 0 0 0 1 0 0 0 0 1 0 0 0 0 1 0 0 0 0.3 0"></feColorMatrix><feBlend in2="shape" mode="soft-light" result="effect2_innerShadow_295_1630"></feBlend></filter><filter id="ipl-illustrations-hero-:r7:-12" width="71.894" height="38.313" x="257.264" y="244.72" color-interpolation-filters="sRGB" filterUnits="userSpaceOnUse"><feFlood flood-opacity="0" result="BackgroundImageFix"></feFlood><feColorMatrix in="SourceAlpha" result="hardAlpha" values="0 0 0 0 0 0 0 0 0 0 0 0 0 0 0 0 0 0 127 0"></feColorMatrix><feOffset dx="-1" dy="1"></feOffset><feGaussianBlur stdDeviation="0.5"></feGaussianBlur><feColorMatrix values="0 0 0 0 0 0 0 0 0 0 0 0 0 0 0 0 0 0 0.3 0"></feColorMatrix><feBlend in2="BackgroundImageFix" result="effect1_dropShadow_295_1630"></feBlend><feBlend in="SourceGraphic" in2="effect1_dropShadow_295_1630" result="shape"></feBlend><feColorMatrix in="SourceAlpha" result="hardAlpha" values="0 0 0 0 0 0 0 0 0 0 0 0 0 0 0 0 0 0 127 0"></feColorMatrix><feOffset dx="-1.5" dy="1"></feOffset><feGaussianBlur stdDeviation="0.75"></feGaussianBlur><feComposite in2="hardAlpha" k2="-1" k3="1" operator="arithmetic"></feComposite><feColorMatrix values="0 0 0 0 1 0 0 0 0 1 0 0 0 0 1 0 0 0 0.3 0"></feColorMatrix><feBlend in2="shape" mode="soft-light" result="effect2_innerShadow_295_1630"></feBlend></filter><filter id="ipl-illustrations-hero-:r7:-11" width="56.499" height="25.734" x="301.134" y="260.505" color-interpolation-filters="sRGB" filterUnits="userSpaceOnUse"><feFlood flood-opacity="0" result="BackgroundImageFix"></feFlood><feColorMatrix in="SourceAlpha" result="hardAlpha" values="0 0 0 0 0 0 0 0 0 0 0 0 0 0 0 0 0 0 127 0"></feColorMatrix><feOffset dx="2" dy="2"></feOffset><feGaussianBlur stdDeviation="1.5"></feGaussianBlur><feColorMatrix values="0 0 0 0 0 0 0 0 0 0 0 0 0 0 0 0 0 0 0.3 0"></feColorMatrix><feBlend in2="BackgroundImageFix" result="effect1_dropShadow_295_1630"></feBlend><feBlend in="SourceGraphic" in2="effect1_dropShadow_295_1630" result="shape"></feBlend><feColorMatrix in="SourceAlpha" result="hardAlpha" values="0 0 0 0 0 0 0 0 0 0 0 0 0 0 0 0 0 0 127 0"></feColorMatrix><feOffset dx="-1.5" dy="1"></feOffset><feGaussianBlur stdDeviation="0.75"></feGaussianBlur><feComposite in2="hardAlpha" k2="-1" k3="1" operator="arithmetic"></feComposite><feColorMatrix values="0 0 0 0 1 0 0 0 0 1 0 0 0 0 1 0 0 0 0.3 0"></feColorMatrix><feBlend in2="shape" mode="soft-light" result="effect2_innerShadow_295_1630"></feBlend></filter><filter id="ipl-illustrations-hero-:r7:-10" width="78.772" height="58.178" x="439.818" y="278.463" color-interpolation-filters="sRGB" filterUnits="userSpaceOnUse"><feFlood flood-opacity="0" result="BackgroundImageFix"></feFlood><feColorMatrix in="SourceAlpha" result="hardAlpha" values="0 0 0 0 0 0 0 0 0 0 0 0 0 0 0 0 0 0 127 0"></feColorMatrix><feOffset dx="1" dy="1"></feOffset><feGaussianBlur stdDeviation="0.5"></feGaussianBlur><feColorMatrix values="0 0 0 0 0 0 0 0 0 0 0 0 0 0 0 0 0 0 0.3 0"></feColorMatrix><feBlend in2="BackgroundImageFix" result="effect1_dropShadow_295_1630"></feBlend><feBlend in="SourceGraphic" in2="effect1_dropShadow_295_1630" result="shape"></feBlend><feColorMatrix in="SourceAlpha" result="hardAlpha" values="0 0 0 0 0 0 0 0 0 0 0 0 0 0 0 0 0 0 127 0"></feColorMatrix><feOffset dx="-1.5" dy="1"></feOffset><feGaussianBlur stdDeviation="0.75"></feGaussianBlur><feComposite in2="hardAlpha" k2="-1" k3="1" operator="arithmetic"></feComposite><feColorMatrix values="0 0 0 0 1 0 0 0 0 1 0 0 0 0 1 0 0 0 0.3 0"></feColorMatrix><feBlend in2="shape" mode="soft-light" result="effect2_innerShadow_295_1630"></feBlend></filter><filter id="ipl-illustrations-hero-:r7:-9" width="214.935" height="183.589" x="122.576" y="153.297" color-interpolation-filters="sRGB" filterUnits="userSpaceOnUse"><feFlood flood-opacity="0" result="BackgroundImageFix"></feFlood><feColorMatrix in="SourceAlpha" result="hardAlpha" values="0 0 0 0 0 0 0 0 0 0 0 0 0 0 0 0 0 0 127 0"></feColorMatrix><feOffset dx="1" dy="1"></feOffset><feGaussianBlur stdDeviation="0.5"></feGaussianBlur><feColorMatrix values="0 0 0 0 0 0 0 0 0 0 0 0 0 0 0 0 0 0 0.3 0"></feColorMatrix><feBlend in2="BackgroundImageFix" result="effect1_dropShadow_295_1630"></feBlend><feBlend in="SourceGraphic" in2="effect1_dropShadow_295_1630" result="shape"></feBlend><feColorMatrix in="SourceAlpha" result="hardAlpha" values="0 0 0 0 0 0 0 0 0 0 0 0 0 0 0 0 0 0 127 0"></feColorMatrix><feOffset dx="-1.5" dy="1"></feOffset><feGaussianBlur stdDeviation="0.75"></feGaussianBlur><feComposite in2="hardAlpha" k2="-1" k3="1" operator="arithmetic"></feComposite><feColorMatrix values="0 0 0 0 1 0 0 0 0 1 0 0 0 0 1 0 0 0 0.3 0"></feColorMatrix><feBlend in2="shape" mode="soft-light" result="effect2_innerShadow_295_1630"></feBlend></filter><filter id="ipl-illustrations-hero-:r7:-8" width="298.696" height="154.634" x="267.652" y="185.252" color-interpolation-filters="sRGB" filterUnits="userSpaceOnUse"><feFlood flood-opacity="0" result="BackgroundImageFix"></feFlood><feColorMatrix in="SourceAlpha" result="hardAlpha" values="0 0 0 0 0 0 0 0 0 0 0 0 0 0 0 0 0 0 127 0"></feColorMatrix><feOffset dx="-2" dy="2"></feOffset><feGaussianBlur stdDeviation="1.5"></feGaussianBlur><feColorMatrix values="0 0 0 0 0 0 0 0 0 0 0 0 0 0 0 0 0 0 0.3 0"></feColorMatrix><feBlend in2="BackgroundImageFix" result="effect1_dropShadow_295_1630"></feBlend><feBlend in="SourceGraphic" in2="effect1_dropShadow_295_1630" result="shape"></feBlend><feColorMatrix in="SourceAlpha" result="hardAlpha" values="0 0 0 0 0 0 0 0 0 0 0 0 0 0 0 0 0 0 127 0"></feColorMatrix><feOffset dx="-1.5" dy="1"></feOffset><feGaussianBlur stdDeviation="0.75"></feGaussianBlur><feComposite in2="hardAlpha" k2="-1" k3="1" operator="arithmetic"></feComposite><feColorMatrix values="0 0 0 0 1 0 0 0 0 1 0 0 0 0 1 0 0 0 0.3 0"></feColorMatrix><feBlend in2="shape" mode="soft-light" result="effect2_innerShadow_295_1630"></feBlend></filter><filter id="ipl-illustrations-hero-:r7:-7" width="91.807" height="75.856" x="-1.5" y="261.03" color-interpolation-filters="sRGB" filterUnits="userSpaceOnUse"><feFlood flood-opacity="0" result="BackgroundImageFix"></feFlood><feColorMatrix in="SourceAlpha" result="hardAlpha" values="0 0 0 0 0 0 0 0 0 0 0 0 0 0 0 0 0 0 127 0"></feColorMatrix><feOffset dx="1" dy="1"></feOffset><feGaussianBlur stdDeviation="0.5"></feGaussianBlur><feColorMatrix values="0 0 0 0 0 0 0 0 0 0 0 0 0 0 0 0 0 0 0.3 0"></feColorMatrix><feBlend in2="BackgroundImageFix" result="effect1_dropShadow_295_1630"></feBlend><feBlend in="SourceGraphic" in2="effect1_dropShadow_295_1630" result="shape"></feBlend><feColorMatrix in="SourceAlpha" result="hardAlpha" values="0 0 0 0 0 0 0 0 0 0 0 0 0 0 0 0 0 0 127 0"></feColorMatrix><feOffset dx="-1.5" dy="1"></feOffset><feGaussianBlur stdDeviation="0.75"></feGaussianBlur><feComposite in2="hardAlpha" k2="-1" k3="1" operator="arithmetic"></feComposite><feColorMatrix values="0 0 0 0 1 0 0 0 0 1 0 0 0 0 1 0 0 0 0.3 0"></feColorMatrix><feBlend in2="shape" mode="soft-light" result="effect2_innerShadow_295_1630"></feBlend></filter><linearGradient id="ipl-illustrations-hero-:r7:-6" x1="366.253" x2="318.666" y1="35.322" y2="207.802" gradientUnits="userSpaceOnUse"><stop stop-color="#2D2D2D"></stop><stop offset="1" stop-color="#161618"></stop></linearGradient><linearGradient id="ipl-illustrations-hero-:r7:-5" x1="238.534" x2="270.458" y1="117.571" y2="217.052" gradientUnits="userSpaceOnUse"><stop offset="0.397" stop-color="#402A2D"></stop><stop offset="0.794" stop-color="#623721"></stop></linearGradient><linearGradient id="ipl-illustrations-hero-:r7:-4" x1="301.362" x2="281.97" y1="305.536" y2="-3.732" gradientUnits="userSpaceOnUse"><stop offset="0.724" stop-color="#2D2D2D"></stop><stop offset="1" stop-color="#623721"></stop></linearGradient><linearGradient id="ipl-illustrations-hero-:r7:-3" x1="435.128" x2="456.24" y1="356.96" y2="255.732" gradientUnits="userSpaceOnUse"><stop offset="0.168" stop-color="#623721"></stop><stop offset="0.724" stop-color="#89471E"></stop></linearGradient><linearGradient id="ipl-illustrations-hero-:r7:-2" x1="324.126" x2="210.45" y1="341.246" y2="200.488" gradientUnits="userSpaceOnUse"><stop stop-color="#402A2D"></stop><stop offset="0.724" stop-color="#89471E"></stop></linearGradient><linearGradient id="ipl-illustrations-hero-:r7:-1" x1="424.854" x2="424.854" y1="197.705" y2="339.384" gradientUnits="userSpaceOnUse"><stop offset="0.63" stop-color="#C0C1C3"></stop><stop offset="1" stop-color="#979797"></stop></linearGradient><clipPath id="ipl-illustrations-hero-:r7:-0"><path xmlns="http://www.w3.org/2000/svg" fill="#fff" d="M415.604 2.575c1.03-1.127 2.057-2.25 3.079-1.394v65.795c24.184 1.587 43.308 21.695 43.308 46.268 0 1.868-.11 3.71-.325 5.52l29.846 10.254 29.101 87.049c3.114.232 6.213.622 9.284 1.17l4.219.482 1.851.815c1.791.447 3.569.949 5.331 1.504a30.642 30.642 0 0 1 9.729 5.134l9.896 4.362c5.319 2.342 5.997 9.615 1.199 12.904h.001l-26.604 18.216 24.815 74.228H40.641l6.963-29.206c-10.754 7.703-20.645 13.965-25.254 16.156-6.967 3.313-12.257 8.613-15.788 13.05H.25c-.796-10.12-.27-28.386 10.468-45.135 11.948-18.63 33.136-17.179 42.984-15.286.434.083.87.137 1.305.163l11.526-48.347C34.803 235.693.665 243.353.665 243.353s2.213-65.814 78.508-70.092l2.308-9.681c-26.651-18.572-49.543-37.191-45.834-44.183 8.38-15.775 44.641 15.577 44.641 15.577-7.875-33.923 4.995-34.507 4.995-34.507a159.907 159.907 0 0 1 10.315 3.901L120.139 1.433 233.505 40.38c7.913-7.529 17.427-13.107 28.371-13.427l21.89-8.55a16.595 16.595 0 0 1 13.699.734l11.79 6.12a17.921 17.921 0 0 1 3.551 2.43l14.449 12.635a19.487 19.487 0 0 1 6.11 10.076l6.815 4.125a23.76 23.76 0 0 1 10.322 13.061l4.69 14.6 20.676 7.104c7.625-12.604 21.084-21.288 36.636-22.311V3.997c1.037.835 2.071-.296 3.1-1.422z"></path></clipPath></defs><g clip-path="url(#ipl-illustrations-hero-:r7:-0)" filter="url(#ipl-illustrations-hero-:r7:-25)"><path fill="#F5CB9D" d="M560.334 334.886H40.641l79.498-333.45 371.373 127.585 68.822 205.865z" class=""></path><g filter="url(#ipl-illustrations-hero-:r7:-24)"><path fill="#234840" d="M89.212 136.46s1.854 88.101 45.012 169.159L89.212 136.46z"></path></g><g filter="url(#ipl-illustrations-hero-:r7:-23)"><path fill="#234840" d="M154.435 210.207s22.498-78.558-69.152-109.736c0 0-12.87.583-4.995 34.507 0 0-36.26-31.352-44.641-15.578-8.373 15.783 118.788 90.807 118.788 90.807z" class=""></path></g><g filter="url(#ipl-illustrations-hero-:r7:-22)"><path fill="#234840" d="M40.467 283.037s66.058-8.755 100.283 42.931c.008 0-38.163-83.038-100.283-42.931z"></path></g><path fill="#fff" d="M415.598 159.617c25.622 0 46.393-20.76 46.393-46.369 0-25.61-20.771-46.37-46.393-46.37s-46.393 20.76-46.393 46.37c0 25.609 20.771 46.369 46.393 46.369z" class=""></path><g filter="url(#ipl-illustrations-hero-:r7:-21)"><path fill="url(#ipl-illustrations-hero-:r7:-6)" d="m318.368 41.323 21.812 13.203a23.76 23.76 0 0 1 10.322 13.062l9.516 29.624a18.61 18.61 0 0 1 .577 9.071l-4.885 26.335a34.294 34.294 0 0 1-12.713 20.854c-12.468 9.662-15.775 27.109-7.694 40.659l6.337 10.632c.962 1.617-.624 3.542-2.391 2.919l-61.482-21.659a2.013 2.013 0 0 1-1.27-2.429l38.896-141.096a2.014 2.014 0 0 1 2.975-1.175z"></path></g><g filter="url(#ipl-illustrations-hero-:r7:-20)"><path fill="#623721" d="M357.305 202.863c-25.695-12.264-54.38-17.501-54.38-17.501l-72.797-10.065-37.334 39.957-19.801 119.632h289.492l-90.376-125.318-14.804-6.705z"></path></g><g filter="url(#ipl-illustrations-hero-:r7:-19)"><path fill="#C08A38" d="m343.052 196.813 14.922 66.404 8.255 23.93a42.236 42.236 0 0 1 .536 25.87l-6.535 21.869H185.936l-14.883-63.096 28.393-35.808s-.632-59.305-19.76-82.565l60.258 2.942 10.945 55.18c.908 1.459 3.267 3.549 6.211 5.813 14.07 10.806 33.814 11.089 47.703.047 5.508-4.377 9.501-10.001 10.819-17.825 1.239-7.383 1.751-12.833 1.751-12.833l25.679 10.072z" class=""></path></g><path fill="url(#ipl-illustrations-hero-:r7:-5)" d="m308.174 178.017-7.481 3.06c-2.013.821-3.907 1.925-5.516 3.376-8.957 8.069-4.861 20.239-16.162 28.513-8.941 6.546-23.492 9.157-37.484-23.457-22.395-52.19 5.075-62.633 5.075-62.633l7.354-23.733 54.214 74.874z"></path><g filter="url(#ipl-illustrations-hero-:r7:-18)"><path fill="#89471E" d="M336.711 76.465c-1.429-5.774-4.53-11.027-8.996-14.963-8.815-7.776-20.549-12.036-32.899-13.968-28.946-4.527-55.484 21.808-60.093 51.22-1.933 12.36 1.681 36.258 5.777 41.046 3.851 4.503 7.789 18.432 11.75 22.171 10.196 9.622 44.057 16.981 44.057 16.981a28.15 28.15 0 0 0 16.848-1.498c1.902-.789 5.335-3.566 8.089-6.302 1.696-1.68 3.093-3.636 4.182-5.758.939-1.83 1.886-3.66 2.967-5.411l7.063-11.421 4.538-12.099a22.1 22.1 0 0 0 1.144-11.152l-.04-.269a21.306 21.306 0 0 1 .229-7.871c.182-.82.339-1.641.482-2.477.741-4.448 1.152-8.613 1.286-12.54l-6.384-25.69z" class=""></path></g><path fill="#623721" d="m306.713 134.344-8.625-9.961.047 3.415c.063 4.377 4.167 7.659 8.412 6.586.056-.008.111-.024.166-.04z"></path><g filter="url(#ipl-illustrations-hero-:r7:-17)"><path fill="#234840" d="M143.878 334.886c-9.602-32.134-30.238-89.77-66.684-141.889l62.334 141.889h4.35z"></path></g><g filter="url(#ipl-illustrations-hero-:r7:-16)"><path fill="#234840" d="M69.492 309.736c18.142-17.052 44.657 7.328 44.657 7.328s19.412-12.967 26.791.047c3.419 6.034-7.813 12.517-22.163 17.775H55.26c2.36-8.539 6.606-17.982 14.232-25.15z" class=""></path></g><path fill="#623721" d="M326.481 125.804a7.907 7.907 0 0 1-3.322 9.977l-5.714 2.288s2.234.765 3.575 5.592c1.342 4.827-1.72 17.186-1.72 17.186s3.077 1.625 5.366 4.969c.292-.481.576-.97.836-1.467.892-1.727 1.784-3.447 2.81-5.103l7.062-11.421 4.538-12.099a22.102 22.102 0 0 0 1.144-11.153l-.039-.268a21.237 21.237 0 0 1 .228-7.863c.182-.821.34-1.641.482-2.477.726-4.37 1.144-8.471 1.278-12.336-3.709-.907-9.461-1.222-15.719 2.453-6.321 3.715-6.029 9.575-3.133 16.303l2.328 5.419z"></path><path fill="#234840" d="M.665 243.357s2.32-69.006 84.122-70.292c0 0 9.145 3.415-2.747 25.2-.694 1.278.56 2.737 1.918 2.232 9.777-3.605 33.727-11.129 35.819.67C122.42 216.035.665 243.357.665 243.357z"></path><path fill="#623721" d="M327.87 147.494c-1.31 2.129-3.006 4.763-4.995 6.522-2.801 2.477-7.149 3.352-11.016 2.974-3.212-.316-6.274-1.373-9.051-2.776-3.425-1.736-7.276-4.78-7.331-8.408 3.764.552 7.615.93 11.41 1.38l5.027.639c4.995-.15 11.159-1.199 15.956-.331z"></path><path fill="#462615" d="m289.076 143.282 6.029.702c.229-.039.45-.079.679-.126l9.627-2.043a5.886 5.886 0 0 1 2.17-.047l4.917.836.986.252a9.259 9.259 0 0 0 4.932-.087l4.782-1.419s4.001.26 7.702 4.921c0 0-9.028 3.897-13.391 4.11-4.349.236-16.091 1.104-28.433-7.099zM283.095 108.539l4.206-1.885a11.594 11.594 0 0 1 8.664-.323c3.173 1.143 6.921 2.784 7.521 4.298 0 0-2.511-.408-5.994-.739a4.967 4.967 0 0 1-.047 2.498 5.078 5.078 0 0 1-.567 1.311c-2.948-.325-5.225-.176-6.965.187-.598-1.038-.79-2.365-.427-3.685.07-.254.158-.498.261-.73-3.958-.019-7.872.332-10.353 1.489l3.701-2.421zm27.919 21.871c-.636.044-1.427.006-2.229-.033-1.217-.059-2.458-.119-3.223.104-2.62.765-3.236 2.493-3.236 2.493h.016a16.634 16.634 0 0 0 8.104-2.24l.568-.324zm11.498-16.903 5.176-2.555a10.473 10.473 0 0 1 9.178-.055l3.141 1.506-6.292.182c.307.769.447 1.718.366 2.73-2.194.205-4.23.844-5.887 1.553a6.381 6.381 0 0 1-.032-1.948c.1-.754.312-1.45.606-2.05l-6.256.637z"></path><path fill="#2D2D2D" d="M281.705 96.913s5.95-1.286 7.307-1.664c0 0 11.159-2.587 10.827-2.737l-6.478-1.183c-1.863-.34-3.773-.3-5.619.126l-2.147.497c-1.538.284-3.708 4.385-3.89 4.96zm61.442 5.111s-5.966 1.183-7.362 1.372c0 0-11.269 2.051-11.032 1.775l5.476-3.66a13.907 13.907 0 0 1 5.209-2.106l2.17-.394c1.531-.355 5.145 2.555 5.539 3.013z"></path><g filter="url(#ipl-illustrations-hero-:r7:-15)"><path fill="#623721" d="m276.426 274.029 19.049-14.765 12.698-3.952.126.071a6.148 6.148 0 0 1 2.707 8.14l-10.867 5.032-23.713 5.474z"></path></g><g filter="url(#ipl-illustrations-hero-:r7:-14)"><path fill="#C08A38" d="m143.916 207.074 1.831-5.987 26.803 133.799h-52.502a578.806 578.806 0 0 1 23.868-127.812z"></path></g><g filter="url(#ipl-illustrations-hero-:r7:-13)"><path fill="url(#ipl-illustrations-hero-:r7:-4)" d="m303.455 61.78-18.592 14.96-24.779 9.087s2.975 28.07-6.439 56.891l22.995 43.088 10.646 67.681-31.416 51.914-.165-11.855 18.071-39.87-19.539-67.555.742 53.926-10.551 65.52-15.538-35.651a13.5 13.5 0 0 1-1.058-6.823l1.989-19.039c.15-1.444.063-2.903-.253-4.315l-18.252-80.837s-6.526-1.656-26.483-5.008l-29.885 13.527 26.452-29.01a10.358 10.358 0 0 1 3.725-2.611l16.398-6.783a15.833 15.833 0 0 0 9.24-10.506l2.376-8.786-5.611-21.934a14.277 14.277 0 0 1 .742-9.268c5.839-13.338 24.755-50.723 53.606-51.567l21.89-8.55a16.595 16.595 0 0 1 13.699.733l11.79 6.121a17.917 17.917 0 0 1 3.551 2.43l14.449 12.635a19.504 19.504 0 0 1 6.66 14.41l.024 1.94c.087 6.515-4.908 11.973-11.403 12.462l-19.081-7.359z" class=""></path></g><g filter="url(#ipl-illustrations-hero-:r7:-12)"><path fill="#fff" d="m329.157 271.356-65.506-26.636-4.387 11.137 60.731 25.176 9.162-9.677z"></path></g><g filter="url(#ipl-illustrations-hero-:r7:-11)"><path fill="#462615" d="m302.634 261.505 49.999 13.29-4.08 5.033-6.171 1.411-22.387-.205-17.361-19.529z"></path></g><path fill="#623721" d="m324.146 120.387 2.335 5.418z"></path><g filter="url(#ipl-illustrations-hero-:r7:-10)"><path fill="url(#ipl-illustrations-hero-:r7:-3)" d="m453.523 295.563 18.284-4.125 23.998-4.062 13.005-8.913 7.441 19.876-1.365 14.142 1.704 10.529-8.255 11.631h-56.727l.763-2.639-.103-.032a8.243 8.243 0 0 1-5.981-8.171l.023-.773-1.333-.449a5.349 5.349 0 0 1-3.425-6.634 5.364 5.364 0 0 1 3.772-3.62l28.693-7.485-19.366.268a4.835 4.835 0 0 1-4.9-4.764 4.843 4.843 0 0 1 3.772-4.779z"></path></g><g filter="url(#ipl-illustrations-hero-:r7:-9)"><path fill="url(#ipl-illustrations-hero-:r7:-2)" d="m330.073 272.587.095 6.712 5.342 8.045-4.932 22.092-21.156 9.749-23.793 13.897a48.824 48.824 0 0 1-3.386 1.804H132.726c-5.687-3.953-9.006-10.743-8.332-17.926l-.308-27.834c-.071-6.097.237-12.194.908-18.259l3.638-32.787c.513-4.662 1.349-9.284 2.335-13.866.926-4.304 1.521-9.184 2.148-14.323.357-2.923.723-5.929 1.167-8.961 3.275-22.352 19.562-40.603 41.366-46.55.331-.166.821-.332 1.42-.489 6.519-1.712 13.495.347 18.095 5.276 8.752 9.379 10.115 19.623 11.754 31.941.388 2.921.792 5.958 1.314 9.128l-3.022 33.734a130.896 130.896 0 0 1-8.531 36.132l3.299.079a39.44 39.44 0 0 1 15.42 3.533l32.867 14.955a16.204 16.204 0 0 0 14.986-3.305l26.278-22.597a10.484 10.484 0 0 1 9.453-2.193l27.186 7.044a5.213 5.213 0 0 1 3.906 4.969z" class=""></path></g><path fill="#2D2D2D" d="M415.604 2.578c1.03-1.127 2.056-2.25 3.079-1.394V66.98c10.857.714 20.698 5.169 28.243 12.076-24.991-9.393-52.216-2.76-63.532.829 7.648-7.377 17.824-12.161 29.11-12.905V4c1.037.836 2.071-.295 3.1-1.422z" class=""></path><g filter="url(#ipl-illustrations-hero-:r7:-8)"><path fill="#fff" d="M272.652 334.886h193.115l26.146-44.372 70.209-48.073c4.798-3.289 4.12-10.561-1.199-12.904l-26.807-11.815-71.322-8.139-76.94-23.331-27.462 56.047-36.023 58.2a64.814 64.814 0 0 1-28.867 25.153l-20.85 9.234z"></path></g><g filter="url(#ipl-illustrations-hero-:r7:-7)"><path fill="#234840" d="M53.702 274.465c3.338.639 6.763-.442 9.186-2.824 5.87-5.758 17.076-14.812 24.29-8.416 10.147 8.984-51.026 52.049-64.828 58.611-6.967 3.312-12.257 8.613-15.788 13.05H.25c-.796-10.121-.27-28.387 10.468-45.136 11.948-18.63 33.136-17.178 42.984-15.285z"></path></g><path fill="#C08A38" d="M212.491 109.312s4.435 2.634 7.907 2.09l-2.028 10.435s-7.252 1.127-8.246-3.739l2.367-8.786zm43.418 38.458s-4.798.876-5.847 3.636l4.253 8.794s2.825-3.975 6.952-2.397l-5.358-10.033zm-47.207-1.719 6.905-5.545-13.462 2.91c3.053.513 6.557 2.635 6.557 2.635z" class=""></path><path fill="url(#ipl-illustrations-hero-:r7:-1)" d="m562.123 242.441-70.209 48.073-26.15 44.372H293.94l2.972-2.104a156.336 156.336 0 0 0 37.097-37.015l57.891-98.062 23.461 7.414a189.943 189.943 0 0 0 49.715 8.684l52.422 2.09a91.378 91.378 0 0 1 23.8 4.148 30.633 30.633 0 0 1 19.823 19.419l1.002 2.981z"></path><g fill="#767676"><path d="m433.709 233.939-38.17-11.437s-8.799 23.725-10.299 24.767c-1.507 1.033 43.253 12.517 43.253 12.517l18.773 1.53 20.454-23.788-34.011-3.589zm-9.179 33.56-49.984-15.782-1.949 6.018 47.64 16.326c2.919.884 5.95 1.31 8.996 1.27l9.091-.126 5.5-5.489-19.294-2.217zm50.631-29.403-4.995 5.285 39.386-.537a11.671 11.671 0 0 1 5.737 1.428c3.472 1.893 9.13 5.419 11.45 9.41l5.019-3.518s-5.122-9.362-12.634-12.028c-1.247-.442-2.581-.592-3.906-.552-6.763.213-34.257 1.033-38.699.504l-1.358.008z"></path><path d="m464.871 251.748 4.238-5.427 29.15.915-2.983 4.094c-10.913-1.112-30.405.418-30.405.418zm-66.603 21.934-27.209-10.088-2.975 4.779 27.201 9.654 2.983-4.345zm-5.327 19.42c-10.03-2.319-29.593-12.659-29.593-12.659l-6.313 15.743a14.996 14.996 0 0 1-6.242 7.311l-10.4 6.216 33.04 9.354 4.364-8.597a10.85 10.85 0 0 1 1.61-2.343l13.534-15.025z"></path></g></g></svg>